<svg width="42" height="42" viewBox="0 0 42 42" xmlns="http://www.w3.org/2000/svg" xmlns:xlink="http://www.w3.org/1999/xlink"><defs><path id="a" d="M0 .063h3.318v7.694H0z"/><path id="c" d="M0 .05h3.198v2.166H0z"/><path id="e" d="M0 .065h1.296v7.602H0z"/><path id="g" d="M0 .063h3.318v7.694H0z"/><path id="i" d="M0 .05h3.198v2.166H0z"/><path id="k" d="M0 .065h1.296v7.602H0z"/></defs><g fill="none" fill-rule="evenodd"><g transform="translate(0 34.237)"><mask id="b" fill="#fff"><use xlink:href="#a"/></mask><path d="M3.275.337S1.922-.067.798.107c0 0-1.12 5.199-.706 7.51 0 0 1.877.63 2.87-.778.993-1.408-.427-2.04-.236-2.997" fill="#3D1308" mask="url(#b)"/></g><path d="M4.62 34.3s-.2-.283-.385-.309c-.185-.026-.852.032-1.131.134-.28.102-1.16 1.718-.248 4.244 0 0 .022.099.347.149.326.05 1.08-.154 1.163-.256.085-.102.41-.235.254-3.962" fill="#FFF"/><path d="M3.877 34.257c-.288 1.053-.268 2.746-.039 3.549.229.803.584.39.586.389.12-.173.327-.773.196-3.895 0 0-.2-.283-.385-.309-.185-.026-.852.032-1.131.134-.18.065-.604.752-.647 1.9.213-2.12 1.42-1.768 1.42-1.768" fill="#D6E7EB"/><path d="M25.6 27.76s-3.442-.82-8.71 1.508c-5.27 2.328-8.236 4.414-12.654 5.139 0 0-.506 1.775-.085 3.591 0 0 5.355.109 9.745-1.906 0 0 1.013-5.015 11.704-8.332" fill="#7A0303"/><path d="M17.487 30.058c3.297-1.573 5.924-2.018 7.54-2.116.189-.061.38-.122.573-.182 0 0-3.442-.82-8.71 1.508-5.27 2.328-8.236 4.414-12.654 5.139 0 0-.117.287-.156.773 5.533-.952 7.783-2.438 13.407-5.122" fill="#D6E7EB"/><g transform="translate(0 39.778)"><mask id="d" fill="#fff"><use xlink:href="#c"/></mask><path d="M2.962 1.298c.104-.147.18-.285.236-.417C2.671.614 1.56.151.021.05c-.04.767-.028 1.478.071 2.027 0 0 1.876.63 2.87-.778" fill="#682410" mask="url(#d)"/></g><g transform="translate(0 34.237)"><mask id="f" fill="#fff"><use xlink:href="#e"/></mask><path d="M.278 7.667C.057 5.35 1.1.876 1.296.065a3.856 3.856 0 0 0-.498.042s-1.12 5.199-.706 7.51c0 0 .069.022.186.05" fill="#130803" mask="url(#f)"/></g><path d="M1.04 34.315l-.421.027s-.48 1.844-.471 2.873l.27.059" fill="#130803"/><g transform="translate(0 34.237)"><mask id="h" fill="#fff"><use xlink:href="#g"/></mask><path d="M3.275.337S1.922-.067.798.107c0 0-1.12 5.199-.706 7.51 0 0 1.877.63 2.87-.778.993-1.408-.427-2.04-.236-2.997" fill="#1C69EA" mask="url(#h)"/></g><path d="M4.62 34.3s-.2-.283-.385-.309c-.185-.026-.852.032-1.131.134-.28.102-1.16 1.718-.248 4.244 0 0 .022.099.347.149.326.05 1.08-.154 1.163-.256.085-.102.41-.235.254-3.962" fill="#BBD9DE"/><path d="M3.877 34.257c-.288 1.053-.268 2.746-.039 3.549.229.803.584.39.586.389.12-.173.327-.773.196-3.895 0 0-.2-.283-.385-.309-.185-.026-.852.032-1.131.134-.18.065-.604.752-.647 1.9.213-2.12 1.42-1.768 1.42-1.768" fill="#BBD9DE"/><path d="M25.6 27.76s-3.442-.82-8.71 1.508c-5.27 2.328-8.236 4.414-12.654 5.139 0 0-.506 1.775-.085 3.591 0 0 5.355.109 9.745-1.906 0 0 1.013-5.015 11.704-8.332" fill="#1C69EA"/><path d="M17.487 30.058c3.297-1.573 5.924-2.018 7.54-2.116.189-.061.38-.122.573-.182 0 0-3.442-.82-8.71 1.508-5.27 2.328-8.236 4.414-12.654 5.139 0 0-.117.287-.156.773 5.533-.952 7.783-2.438 13.407-5.122" fill="#1056CA"/><g transform="translate(0 39.778)"><mask id="j" fill="#fff"><use xlink:href="#i"/></mask><path d="M2.962 1.298c.104-.147.18-.285.236-.417C2.671.614 1.56.151.021.05c-.04.767-.028 1.478.071 2.027 0 0 1.876.63 2.87-.778" fill="#1056CA" mask="url(#j)"/></g><g transform="translate(0 34.237)"><mask id="l" fill="#fff"><use xlink:href="#k"/></mask><path d="M.278 7.667C.057 5.35 1.1.876 1.296.065a3.856 3.856 0 0 0-.498.042s-1.12 5.199-.706 7.51c0 0 .069.022.186.05" fill="#1056CA" mask="url(#l)"/></g><path d="M1.04 34.315l-.421.027s-.48 1.844-.471 2.873l.27.059" fill="#1056CA"/><path d="M35.674 40.31s.992 1 2.062 1.384c0 0 3.493-4.024 4.245-6.25 0 0-1.341-1.449-2.892-.689-1.551.76-.612 1.994-1.24 2.742" fill="#2879FF"/><path d="M34.363 39.906s.039.344.188.455c.15.111.763.38 1.057.423.294.045 1.846-.953 2.267-3.604 0 0 .028-.097-.233-.296-.262-.2-1.021-.38-1.144-.332-.123.05-.474.01-2.135 3.354" fill="#FFF"/><path d="M34.993 40.299c.76-.786 1.56-2.28 1.748-3.094.187-.813-.324-.621-.326-.62-.188.093-.66.52-2.052 3.321 0 0 .039.344.188.455.15.111.763.38 1.057.423.188.029.892-.371 1.485-1.358-1.212 1.759-2.1.873-2.1.873" fill="#D6E7EB"/><path d="M12.803 35.618s2.623 2.364 8.368 2.84c5.746.475 9.354.062 13.58 1.538 0 0 1.3-1.315 1.808-3.11 0 0-2.593-1.755-5.25-2.034 0 0-7.527 2.965-18.506.766" fill="#2879FF"/><path d="M21.029 37.479c-3.652-.196-6.17-1.061-7.635-1.747a46.35 46.35 0 0 1-.59-.114s2.622 2.364 8.367 2.84c5.746.475 9.354.062 13.58 1.538 0 0 .24-.196.51-.603-5.312-1.81-8.004-1.58-14.232-1.914" fill="#1C69EA"/><path d="M34.022 33.57s-2.205 4.465-12.469 3.97C11.29 37.048 9.94 33.403 9.411 31.097c-.528-2.306 24.611 2.474 24.611 2.474" fill="#2879FF"/><path d="M9.411 31.096c.47 2.047 1.587 5.148 9.009 6.165-4.799-.825-4.406-2.522-4.669-2.578 14.668 3.15 19.761-.417 19.761-.417l.442-.577c.047-.076.068-.119.068-.119s-25.139-4.78-24.61-2.474" fill="#1C69EA"/><path d="M9.36 30.686s-.453.199-.473.434c-.02.236.072 1.033.332 1.253.26.218 6.078 2.24 13.647 2.709 7.57.468 12.263-1.987 12.263-1.987s.062-.855-.325-1.33c0 0-.267-.141-.829-.07-.562.073-24.615-1.01-24.615-1.01" fill="#FFF"/><path d="M33.975 31.696c-.562.071-24.615-1.01-24.615-1.01s-.453.199-.473.434c-.02.236.072 1.033.332 1.252.18.152 3.006 1.161 7.228 1.927-4.044-.747-6.784-2.008-6.784-2.008l-.126-.633s5.033 1.78 12.292 2.588c7.26.808 11.572-1.265 12.408-1.64.835-.375.567-.842.567-.842s-.267-.14-.829-.068m-17.001 2.696l.016.002-.016-.002" fill="#D6E7EB"/><path d="M5.544 17.667s-3.853 2.46-2.33 4.384c1.523 1.925 3.386-.24 3.386-.24s-.095.78.4.969c.495.19 1.15-2.445 1.15-2.445l-2.606-2.668z" fill="#570903"/><path d="M8.15 20.335l-2.606-2.668s-3.853 2.46-2.33 4.384c.143.18.289.325.436.439-1.07-1.477.505-2.967.897-3.146.392-.18.56.41 1.663 1.523 1.103 1.112 1.539.795 1.539.795.232-.645.402-1.327.402-1.327" fill="#D6E7EB"/><path d="M6.924 16.947s-.546-.485-.831-.463c-.286.022-1.25 1.187-1.464 1.502-.214.315 1.8 3.139 2.837 3.463 1.037.324 1.733-1.17 1.733-1.17l-2.275-3.332z" fill="#FFF"/><path d="M6.093 16.484c-.286.022-1.25 1.187-1.464 1.502-.085.125.181.646.598 1.248-.766-1.337.758-2.293.758-2.293.41 1.623 1.621 3.11 2.295 3.531.553.346.817-.008.894-.145l.025-.049-2.275-3.33s-.546-.486-.831-.464" fill="#D6E7EB"/><path d="M21.538 15.655s-5.155-4.971-15.106 1.326c0 0 .032 1.43 2.235 3.272 0 0 5.415-2.378 8.831-.33 3.416 2.046 6.69-1.96 4.04-4.268" fill="#E50B04"/><path d="M22.492 17.874c-.481 1.683-2.664 2.952-4.909 1.607-3.416-2.048-8.832.33-8.832.33-1.551-1.297-2.025-2.39-2.17-2.922-.05.03-.1.06-.149.092 0 0 .032 1.43 2.235 3.272 0 0 5.415-2.378 8.831-.33 2.438 1.46 4.802-.161 4.994-2.05" fill="#FF120F"/><path d="M22.268 16.592l.001.001-.005-.01a2.244 2.244 0 0 0-.05-.098l-.01-.02a2.659 2.659 0 0 0-.145-.233l-.014-.02a2.465 2.465 0 0 0-.066-.09l-.027-.035c-.02-.025-.04-.05-.062-.075l-.032-.038a2.916 2.916 0 0 0-.065-.072l-.035-.038a3.25 3.25 0 0 0-.073-.073c-.012-.01-.022-.022-.034-.033a3.43 3.43 0 0 0-.113-.103l-.004-.004-.002-.002-.01-.01-.006-.005-.016-.014-.009-.007-.02-.018-.013-.011-.024-.021-.016-.013-.031-.026c-.007-.004-.012-.01-.018-.014l-.038-.03-.02-.016-.046-.035-.02-.015a6.037 6.037 0 0 0-.057-.042l-.016-.012a4.756 4.756 0 0 0-.081-.058h-.001a6.308 6.308 0 0 0-.196-.132l-.006-.004a8.048 8.048 0 0 0-.102-.064l-.022-.014a10.156 10.156 0 0 0-.218-.13l-.037-.02a7.975 7.975 0 0 0-.097-.053l-.04-.022a8.355 8.355 0 0 0-.102-.054l-.043-.022a12.63 12.63 0 0 0-.11-.055l-.042-.02a8.42 8.42 0 0 0-.122-.058l-.038-.018a11.066 11.066 0 0 0-.142-.063l-.026-.011a8.816 8.816 0 0 0-.566-.221l-.015-.006-.186-.062-.043-.014a8.934 8.934 0 0 0-.166-.051l-.058-.017-.16-.045-.066-.018a9.36 9.36 0 0 0-.16-.041l-.072-.018a9.024 9.024 0 0 0-.165-.037l-.074-.016a11.551 11.551 0 0 0-.172-.035l-.074-.014a10.65 10.65 0 0 0-.185-.033l-.068-.011a9.601 9.601 0 0 0-.21-.03l-.05-.008c-2.522-.335-6.142.133-10.825 3.096 0 0 .019.785.923 1.94-.452-.777-.464-1.268-.464-1.268 4.466-2.826 7.965-3.382 10.466-3.137.096.07.212.131.352.182 1.432.527 2.691 1.427 2.691 1.427s-.614-.396-1.249.246c-.4.405-.116.887.148 1.187-.223-.11-.421-.252-.53-.468a.036.036 0 0 0-.047-.015.035.035 0 0 0-.016.047.877.877 0 0 0 .058.099c.154.226.404.365.665.474.098.096.173.153.173.153s-1.127.047-1.04.928c.062.639.51 1.049.752 1.226-.362-.023-.655.044-.891.206a.035.035 0 0 0-.01.049c.012.016.034.02.05.01.24-.165.544-.227.928-.188a.78.78 0 0 1 .044.005l.033.02s-.31.098-.578.34c2.404.385 4.298-1.929 3.378-3.852" fill="#D6E7EB"/><path d="M21.535 19.68l.02-.017.017-.016a3.157 3.157 0 0 0 .182-.183l.013-.014a2.357 2.357 0 0 0 .14-.167l.02-.025.046-.06.007-.012a.972.972 0 0 0 .01-.013l.015-.021.044-.065.012-.018.008-.013.01-.015a2.495 2.495 0 0 0 .11-.188 2.979 2.979 0 0 0 .048-.093l.005-.012.005-.011.007-.015a2.622 2.622 0 0 0 .088-.208l.008-.024.003-.007.029-.084.003-.01a3.13 3.13 0 0 0 .04-.138l.004-.016.018-.076c0-.006.002-.013.004-.019a2.578 2.578 0 0 0 .04-.247c0-.007 0-.014.002-.022a3.56 3.56 0 0 0 .006-.077l.001-.022a2.408 2.408 0 0 0-.004-.349l-.002-.02a2.365 2.365 0 0 0-.036-.247l-.006-.028a3.335 3.335 0 0 0-.018-.077l-.004-.014a2.458 2.458 0 0 0-.046-.159l-.006-.016a2.65 2.65 0 0 0-.027-.075l-.01-.029-.031-.075a2.88 2.88 0 0 0-.772-1.028s-2.255-2.174-6.66-1.825h-.013a11.24 11.24 0 0 0-.13.012l-.022.002a9.78 9.78 0 0 0-.124.012l-.03.003-.12.013-.034.004a16.662 16.662 0 0 0-.315.04l-.118.018-.041.006a9.446 9.446 0 0 0-.319.053l-.126.023-.03.006-.136.026-.009.001c-.205.041-.414.088-.627.14l-.033.008-.12.03-.055.014-.112.03-.065.017-.107.03-.073.02-.104.03-.076.023-.103.03a6.599 6.599 0 0 0-.08.025c-.034.01-.068.02-.102.032l-.082.026c-.034.01-.067.022-.1.033l-.087.028-.1.034-.087.03-.1.035a8.167 8.167 0 0 0-.19.068l-.09.033-.1.038a9.051 9.051 0 0 0-.095.036l-.098.037a22.48 22.48 0 0 0-.098.039l-.097.038-.102.042-.094.038-.121.051a17.668 17.668 0 0 0-.273.118l-.09.04-.112.05-.093.042-.11.05-.096.046-.11.051-.097.047a19.618 19.618 0 0 0-.208.102l-.11.055-.1.05a13.19 13.19 0 0 0-.323.167l-.1.053a23.31 23.31 0 0 0-.214.115l-.115.064-.1.055-.118.066-.1.057-.12.07-.1.056-.124.074-.096.056-.132.08-.09.054-.148.09c-.186-.14-.464-.322-.641-.308-.286.022-1.25 1.187-1.464 1.502a.086.086 0 0 0-.01.025l-.003.006a.174.174 0 0 0-.003.032c0 .017.001.03.003.042l.001.008a.47.47 0 0 0 .01.046c0 .004.002.007.003.011l.015.05.001.004c.006.02.014.04.022.06l.006.014.01.023c-1.036.859-2.512 2.427-1.47 3.744l.064.078.021.025.045.05.023.025.055.058.018.018a2.639 2.639 0 0 0 .121.112l.024.02.06.05c1.422 1.105 2.955-.675 2.955-.675s-.095.778.4.968c.265.102.576-.607.808-1.287.845-.044 1.39-1.215 1.39-1.215l-.127-.187c1.318-.499 5.571-1.88 8.427-.169a4.7 4.7 0 0 0 .143.082l.04.021c.038.021.076.04.115.06l.03.016.142.066.031.013a4.077 4.077 0 0 0 .435.16l.038.01c.038.011.076.022.114.031l.028.008.138.03.03.006a3.602 3.602 0 0 0 .592.061 3.205 3.205 0 0 0 .264-.007l.036-.003a3.35 3.35 0 0 0 .253-.03l.037-.006a3.33 3.33 0 0 0 .096-.018l.03-.006.118-.028.034-.01a2.586 2.586 0 0 0 .233-.07l.025-.01.092-.035.041-.017.076-.032.036-.016.1-.048.04-.021a3.21 3.21 0 0 0 .393-.242l.045-.033.013-.01a3.31 3.31 0 0 0 .199-.164z" fill="#1C69EA"/><path d="M6.734 16.792c-.186-.14-.464-.322-.641-.308-.286.022-1.25 1.187-1.464 1.502a.086.086 0 0 0-.01.025l-.003.006a.174.174 0 0 0-.003.032c0 .017.001.03.003.042l.001.008a.47.47 0 0 0 .01.046c0 .004.002.007.003.011l.015.05.001.004c.006.02.014.04.022.06l.006.014c.003.008 2.902 3.889 3.134 3.209.845-.044 1.39-1.215 1.39-1.215l-2.464-3.486z" fill="#BBD9DE"/><path d="M28.4 18.68s2.023 3.077 2.507 5.811c0 0 3.356 2.475 3.57 7.597 0 0-6.374 4.827-25.065-.992 0 0-1.448-11.751 7-16.488S28.4 18.68 28.4 18.68" fill="#2879FF"/><path d="M30.522 23.016a1.26 1.26 0 0 0-.39-.42c.085.006.167.01.246.012-.772-2.094-1.978-3.928-1.978-3.928s-1.668-4.152-5.447-5.222a2.369 2.369 0 0 0-.422.358c-.749-.417-1.553.25-1.553.25a1.949 1.949 0 0 1-.588-.819c-1.182.121-2.505.535-3.978 1.36a12.269 12.269 0 0 0-3.18 2.552l-.002.003c-.046.051-.09.104-.135.156l-.083.095c-.076.09-.151.182-.225.274l-.063.081a9.896 9.896 0 0 0-.156.202l-.082.111-.129.177-.084.12a13.705 13.705 0 0 0-.31.468l-.041.063c-3.352 5.347-2.51 12.187-2.51 12.187a80.48 80.48 0 0 0 3.881 1.105c-.04-.164-.076-.264-.076-.264s.631.47 1.044.138c.22-.178-.242-.8-.719-1.339.383-.75-.365-1.805-.365-1.805l-.226.017c.222-1.385 1.14-5.741 4.056-7.35l.07-.04c-.005.033-.01.066-.012.1a.035.035 0 0 0 .07.006 1.04 1.04 0 0 1 .026-.155 3.9 3.9 0 0 0 .383-.262c-.02.288.03.655.32.937.56.543 1.905.228 1.905.228.177.866 1.835.648 1.835.648s-.024.708 1.282.851c.893.098 1.23-.33 1.355-.61a5.356 5.356 0 0 1-.029.219c-.012.084-.024.165-.03.238a.035.035 0 0 0 .032.039.036.036 0 0 0 .039-.033c.006-.071.017-.15.03-.234.02-.136.04-.283.04-.418.06.184.376.95 1.465 1.04 1.239.102 1.183-.93 1.183-.93l.125.06c.035.256.01.51-.016.776l-.018.199a.036.036 0 0 0 .07.006l.02-.198c.023-.244.047-.496.02-.749.45.207 1.564.681 2.367.72.87.042.686-1.016.609-1.344.233.172.436.521.475.758a.036.036 0 0 0 .04.029l.004-.001a12.124 12.124 0 0 0-.145-.462" fill="#1C69EA"/><path d="M25.556 4.956S24.77 2.244 21.774.673c-2.996-1.571-5.882-.014-7.997.85-2.115.865-4.443-.84-5.744-.617-1.302.224-1.553 2.66-2.67 2.379 0 0-.06.148.61.098.669-.05 1.136-1.939 2.767-1.567 1.632.371 3.08 1.526 4.37 1.437 1.29-.09 2.67-.193 3.393.008.723.202 1.037 1.551 1.037 1.551" fill="#2879FF"/><path d="M11.935 1.74c-1.37-.154-2.682-.833-3.607-.853.969.134 2.27.78 3.607.852M5.69 3.36c-.085.006-.158.01-.221.01.085.021.236.033.504.013.61-.045 1.05-1.614 2.356-1.615-1.528-.247-1.988 1.544-2.64 1.592" fill="#FF120F"/><path d="M21.774.673a5.768 5.768 0 0 0-2.368-.662 5.77 5.77 0 0 1 2.085.639c2.996 1.57 3.782 4.282 3.782 4.282l-7.737-.138.004.018 8.016.144S24.77 2.244 21.774.673" fill="#5190F8"/><path d="M12.827 3.23a2.093 2.093 0 0 1-.201.003c.163.023.325.031.484.02.94-.065 1.926-.137 2.673-.094-.768-.086-1.892-.003-2.956.07" fill="#FF120F"/><path d="M24.871 3.534c-2.111-.078-6.854.125-6.854.125s-.406-.826-.93-1.105c-.522-.28-1.375-.02-1.886-.156-.512-.137-.258-.613.743-.931 1-.32 2.437-1.027 3.546-1.22 1.004-.173 2.199.39 2.415.498l-.131-.072c-2.996-1.57-5.882-.014-7.997.85-2.115.865-4.443-.84-5.744-.616-1.302.222-1.553 2.66-2.67 2.378 0 0-.06.148.61.098.669-.05 1.136-1.939 2.767-1.567 1.632.371 3.08 1.527 4.37 1.437 1.29-.09 2.67-.193 3.393.009.723.201 1.037 1.55 1.037 1.55l8.016.144s-.178-.612-.685-1.422" fill="#1C69EA"/><path d="M25.692 11.016c5.108 3.684-.289 8.2-4.08 7.885-3.792-.313-6.61-3.625-6.294-7.397.315-3.771 3.645-6.574 7.436-6.26 3.791.314 3.253 2 2.938 5.772" fill="#FFC0A6"/><path d="M28.227 11.096c-.056.667-.626 1.165-1.623 1.083-.996-.083-1.76-.69-1.703-1.358.055-.668.366-.572 1.551-1.089 1.048-.457 1.848.484 1.775 1.364" fill="#FF8986"/><path d="M17.197 7.218s-1.048-.536-.936-1.023c.112-.487.693-.615.709-.809.016-.194-.369-.533-.185-.967.183-.434 7.524-.44 9.226-.063 0 0 .395.103.468.369.073.266-.552.64-.53.949.021.308.341.588-.206 1.101 0 0-5.072.425-8.546.443" fill="#FFF"/><path d="M25.94 6.55c-3.34-.772-9.068.001-9.1-.189-.03-.191.211-.384.211-.384 1.29-.791 5.465-1.013 5.465-1.013-2.365-.125-4.78.36-5.124.202-.343-.158-.211-.596-.211-.596 1.123-.38 6.72-.423 6.732-.423-2.791-.14-6.99-.055-7.128.272-.184.434.201.773.185.967-.017.194-.597.322-.71.81-.111.486.937 1.022.937 1.022 3.474-.018 8.546-.443 8.546-.443.085-.08.15-.154.197-.224m1.2 5.031c-.996-.082-1.759-.69-1.703-1.358l.01-.093c-.379.155-.512.275-.546.69-.056.667.706 1.275 1.703 1.358.831.068 1.364-.267 1.551-.766-.26.136-.6.203-1.014.17" fill="#D6E7EB"/><path d="M23.353 8.438c.152.01.307.003.433-.048a.365.365 0 0 1-.022.175c-.067.17-.324.218-.584.209.071-.106.128-.223.173-.336m.144-.504s.06.032.154.078l.017.038c.042.088.085.179.106.269a.876.876 0 0 1-.395.05c.086-.236.118-.435.118-.435m.326.16c.027.04.056.077.087.114l-.015.022a.296.296 0 0 1-.057.052 1.357 1.357 0 0 0-.086-.221l.071.033m3.498 4.618l-.14-.156-2.184-.977c-1.095-.54-2.04.54-2.04.54-.75-.416-1.553.25-1.553.25-.872-.697-.87-2.053-.708-2.726-.005.07-.006.137-.003.199.014.327.206.613.36.842.007.01.017.015.027.015a.035.035 0 0 0 .033-.055c-.15-.221-.336-.498-.35-.805a2.13 2.13 0 0 1 .046-.504c.268-.428 1.061-.237 1.756-.202.243.012.427-.116.565-.292.236.015.603-.005.7-.25a.44.44 0 0 0 .024-.236.38.38 0 0 0 .096-.08l.009-.013c.162.172.37.306.596.338h.003a.035.035 0 0 0 .008-.07c-.217-.03-.417-.163-.571-.332l.01-.023c.253.108.544.212.736.217.403.009.22-.644.22-.644s.068.025.177.062c.232.198.5.382.771.516l.002-.08a3.794 3.794 0 0 1-.578-.372c.165.053.37.115.58.169a4.336 4.336 0 0 0-.101-1.034l-.088.061a1.75 1.75 0 0 1 .08-.095 2.096 2.096 0 0 0-.023-.08 1.789 1.789 0 0 0-.233.307l-.04.032c-3.455-.372-8.284.31-8.284.31a4.02 4.02 0 0 0-.21-.002 6.803 6.803 0 0 0-1.696 3.962c-.316 3.772 2.502 7.084 6.294 7.397 3.222.267 7.602-2.954 5.71-6.189M17.197 7.218c3.474-.018 8.546-.443 8.546-.443.015-.013.028-.027.041-.04-2.608-.421-8.137-.033-8.633.032-.504.066-.664-.055-.664-.055.28.286.71.506.71.506" fill="#D6E7EB"/><path d="M28.16 12.98s.228.309.114.391c-.114.082-.631.093-.631.093s.025.545-.21.59c-.235.046-.787.036-.787.036s-.09.436-.284.42c-.195-.017-1.158-.22-1.158-.22s1.051.317 1.175.336c.123.02.276-.119.338-.38 0 0 .585-.013.786-.067.2-.055.236-.37.236-.583l.4-.038c.125-.012.263-.011.277-.175l-.256-.402zm-.63-2.792c-.045.126-.24.172-.433.103-.194-.069-.314-.227-.269-.353.045-.127.24-.173.433-.104.194.07.314.227.269.354" fill="#D6E7EB"/><path d="M24.86 9.87c.06-.715.235-1.285.392-1.272.156.013.234.603.174 1.32" stroke="#101212" stroke-width=".5" stroke-linecap="round"/><path d="M24.974 8.511s.236-.468.5-.1c0 0-.166-.501-.5.1" fill="#D6E7EB"/><path d="M7.209 3.525c.273.873-.217 1.8-1.094 2.071a1.665 1.665 0 0 1-2.082-1.088 1.653 1.653 0 0 1 1.094-2.07A1.665 1.665 0 0 1 7.21 3.524" fill="#FFF"/><path d="M6.581 4.629A1.665 1.665 0 0 1 4.5 3.541a1.642 1.642 0 0 1-.063-.685 1.648 1.648 0 0 0-.403 1.652 1.665 1.665 0 0 0 3.24-.298c-.186.188-.42.335-.692.419" fill="#D6E7EB"/><path d="M6.239 5.358A1.664 1.664 0 0 1 4.157 4.27a1.64 1.64 0 0 1 .054-1.13c-.247.394-.328.89-.178 1.368a1.665 1.665 0 0 0 3.122.147c-.204.325-.52.58-.916.703" fill="#D6E7EB"/><path d="M18.544 18.007s-3.208-1.126-5.31 1.168c-2.103 2.295 3.417 7.62 7.998 7.963 4.58.345 8.026-2.287 8.026-2.287s-1.775-1.534-3.194-2.436c0 0-2.185 1.255-4.804.285-2.62-.97-.262-3.984-2.716-4.693" fill="#2879FF"/><path d="M18.288 18.22c2.491.723.116 3.73 2.776 4.715 2.66.984 4.868-.263 4.868-.263 1.2.758 2.652 1.953 3.106 2.334.143-.097.22-.155.22-.155s-1.775-1.533-3.194-2.436c0 0-2.185 1.255-4.804.285-2.62-.97-.262-3.984-2.716-4.693 0 0-2.506-.879-4.54.503 1.99-1.094 4.284-.29 4.284-.29" fill="#1C69EA"/><path d="M29.051 24.675c-.812.564-3.836 2.448-7.65 2.186-4.476-.308-9.833-5.574-7.759-7.88a4.343 4.343 0 0 1 1.016-.837 4.28 4.28 0 0 0-1.424 1.032c-2.103 2.294 3.417 7.618 7.998 7.962 4.58.345 8.026-2.287 8.026-2.287s-.075-.066-.207-.176" fill="#1056CA"/><path d="M14.388 11.786a2.6 2.6 0 0 0 .07.045c.037.056.065.092.073.102a1.356 1.356 0 0 0-.143-.147m9.497-4.233l.018.038c.042.088.084.179.106.269a.878.878 0 0 1-.396.05c.086-.236.118-.435.118-.435l.154.078m.245.218a.301.301 0 0 1-.057.052 1.406 1.406 0 0 0-.087-.221l.072.033c.027.039.055.077.086.113l-.014.023m-.131.335c-.068.17-.325.218-.585.209a1.76 1.76 0 0 0 .173-.336c.152.01.307.003.433-.048a.367.367 0 0 1-.021.175m9.166 11.114c-.056-.448-.482-.543-.766-.555.23-.12.45-.327.6-.468l.032-.028a.035.035 0 0 0 0-.05.036.036 0 0 0-.05-.002l-.03.03c-.147.138-.392.368-.634.477.21-.223.404-.571.42-.811a.035.035 0 0 0-.033-.038.035.035 0 0 0-.038.033c-.017.256-.274.674-.502.864a.1.1 0 0 0-.022.002s.557-1.549.177-2.112c-.38-.563-1.204-.1-1.204-.1s.012-.013.03-.038c.253-.158.479-.468.51-.73a.035.035 0 0 0-.031-.04.037.037 0 0 0-.04.03c-.023.197-.171.43-.352.588.121-.266.228-.794-.297-1.49-.77-1.021-2.795-1.224-2.795-1.224.308.002.276-.175.276-.175-.18-.402-1.002-1.286-1.002-1.286l-2.182-.977c-1.095-.54-2.04.54-2.04.54-.75-.416-1.554.25-1.554.25-.872-.697-.87-2.053-.708-2.726-.004.07-.006.137-.003.199.014.327.207.613.361.842.006.01.016.014.027.015a.035.035 0 0 0 .032-.055c-.15-.222-.335-.498-.349-.805-.007-.151.01-.331.046-.505.267-.427 1.06-.236 1.756-.201.242.012.427-.116.564-.292.236.015.603-.005.7-.25a.44.44 0 0 0 .024-.236.38.38 0 0 0 .096-.08c.004-.004.006-.01.009-.013.163.172.371.306.597.338h.002a.036.036 0 0 0 .038-.03.036.036 0 0 0-.03-.04c-.217-.03-.417-.163-.57-.332l.01-.023c.252.108.544.212.736.216.403.01.22-.643.22-.643s.067.025.177.062c.428.365.977.687 1.452.726.03.002.06.004.089.004a.035.035 0 1 0 0-.07c-.437-.004-.947-.287-1.347-.596.586.188 1.67.487 1.766.169.11-.367-.381-.512-.544-.55.187-.028.375-.221.511-.363.047-.048.087-.09.12-.118a.035.035 0 0 0 .004-.05.036.036 0 0 0-.05-.004 2.181 2.181 0 0 0-.125.123c-.132.137-.3.31-.457.34.133-.162.453-.594.167-.732-.242-.117-.722.18-1 .381.226-.29.548-.518.697-.615a.035.035 0 0 0 .01-.049.036.036 0 0 0-.049-.01c-.18.118-.61.424-.834.806l-.04.032c-3.456-.372-8.284.31-8.284.31a3.829 3.829 0 0 0-.372.002.04.04 0 0 0-.022-.01c-.141-.008-.283-.055-.432-.104a2.033 2.033 0 0 0-.452-.111.035.035 0 0 0-.006.07c.148.013.294.061.436.108.078.026.158.051.238.072-.795.124-.67.61-.537.874-.146-.04-.255-.113-.418-.266a.036.036 0 0 0-.05.002.035.035 0 0 0 .001.05c.192.18.32.256.513.296.033.056.06.09.06.09s-.36-.385-1.027.34c-.498.541-.12 1.095.102 1.34-.257-.051-.45-.162-.535-.455a.035.035 0 0 0-.044-.024.035.035 0 0 0-.024.043c.104.36.37.472.64.517-.34.062-.82-.007-.974-.137a.036.036 0 0 0-.05.004.035.035 0 0 0 .004.05c.104.087.331.15.576.17.122.01.249.009.366-.004-.2.052-.558.186-.98.532-.433.356-.261.86-.099 1.157-.215-.152-.465-.388-.522-.695a.036.036 0 0 0-.07.013c.05.262.227.475.41.63-.315-.195-.812-.315-1.333.3-.87 1.027 1.095 1.827 1.095 1.827s-.224-.066-.502-.094a1.285 1.285 0 0 0-.1-.026 3.02 3.02 0 0 1-.187-.045c-.173-.13-.314-.287-.305-.386a.035.035 0 0 0-.033-.038.035.035 0 0 0-.038.032c-.008.099.076.22.196.334a1.194 1.194 0 0 1-.658-.557.036.036 0 0 0-.049-.014.035.035 0 0 0-.014.048c.208.382.532.55.855.642-.217.011-.428.064-.563.201-.23.233.197.534.584.74-.43-.133-.915-.28-1.238-.028a.035.035 0 0 0-.006.05.036.036 0 0 0 .05.005c.296-.23.767-.085 1.183.043.132.04.26.08.379.107.086.038.142.06.142.06s-1.058-.123-1.843.308c-.784.431-.15 2.22 1.162 1.443 1.312-.777 2.807-1.185 2.807-1.185s-.695.226-.592 1.12c.065.565.62.648 1.02.632-.225.103-.461.168-.698.116a.035.035 0 1 0-.015.069.843.843 0 0 0 .114.017c.273.023.54-.084.788-.217.137-.016.228-.037.228-.037s-.67.901.073 1.388c.538.353 1.14.264 1.431.189-.245.265-.377.534-.399.818a.035.035 0 0 0 .033.039.036.036 0 0 0 .038-.033c.022-.29.165-.563.436-.836l.032-.03c.024-.008.037-.014.037-.014s-.337.859.223 1.401c.56.543 1.905.229 1.905.229.177.865 1.835.648 1.835.648s-.024.707 1.282.85c.893.098 1.23-.329 1.355-.61a5.401 5.401 0 0 1-.029.219c-.012.085-.024.165-.03.238a.035.035 0 0 0 .07.006c.007-.071.018-.15.03-.234.02-.136.041-.283.04-.418.061.184.377.95 1.466 1.04 1.239.102 1.183-.93 1.183-.93l.125.06c.035.257.01.51-.015.776l-.019.199a.036.036 0 0 0 .07.006l.02-.198c.023-.244.048-.496.02-.749.45.207 1.564.682 2.367.72.87.042.686-1.015.609-1.344.233.172.436.521.475.758a.036.036 0 0 0 .07-.012c-.044-.267-.283-.672-.561-.841.236.015.451.019.646.013l.025.01c.158.047.3.076.43.086.163.014.305-.001.431-.044a.035.035 0 1 0-.023-.067c-.173.06-.382.06-.636.003 1.271-.095 1.572-.655 1.5-1.222" fill="#FFF"/><path d="M20.361 10.986c.11.937.711 1.637.036 1.715-.675.08-1.312-.616-1.423-1.553-.11-.936.347-1.76 1.022-1.838.675-.08.255.74.365 1.676" fill="#FFB29C"/><path d="M20.6 12.187c-.675.078-1.312-.617-1.423-1.554a2.255 2.255 0 0 1 .039-.77c-.202.338-.3.796-.242 1.285.11.937.748 1.632 1.423 1.553.334-.039.356-.23.279-.528a.697.697 0 0 1-.076.014" fill="#D6E7EB"/><path d="M14.458 11.83c.037.056.065.093.073.103a1.35 1.35 0 0 0-.143-.147l.07.045m5.971 8.426c.177.865 1.835.648 1.835.648s-.024.707 1.282.85c.893.098 1.23-.329 1.355-.61a5.608 5.608 0 0 1-.029.219c-.012.085-.024.165-.03.238a.036.036 0 0 0 .032.039.035.035 0 0 0 .039-.033c.006-.071.017-.15.03-.234.02-.136.04-.283.04-.418.06.184.376.95 1.465 1.04 1.239.102 1.183-.93 1.183-.93l.125.06c.035.257.01.51-.015.776l-.019.199a.036.036 0 0 0 .071.006l.018-.198c.024-.244.048-.496.02-.749.451.207 1.565.682 2.368.72.87.042.686-1.015.609-1.344.233.172.436.521.475.758a.035.035 0 0 0 .04.029.035.035 0 0 0 .03-.04c-.044-.268-.283-.673-.561-.842.236.015.451.019.646.013.009.003.017.007.026.009.157.048.3.077.43.087a1.04 1.04 0 0 0 .43-.044.035.035 0 0 0 .022-.045.036.036 0 0 0-.045-.022c-.172.06-.382.06-.636.003 1.271-.095 1.572-.655 1.5-1.222-.056-.448-.482-.543-.766-.555.23-.12.45-.327.6-.468l.031-.028a.035.035 0 0 0-.048-.052l-.031.03c-.147.138-.392.368-.634.477.21-.223.404-.571.42-.811a.035.035 0 0 0-.033-.038.035.035 0 0 0-.038.033c-.017.256-.274.674-.502.864a.536.536 0 0 0-.022.002s.306-.85.31-1.52a4.276 4.276 0 0 1-.759 1.92s1.37-.127.887.475c-.483.602-2.926-.525-2.926-.525s.785 1.695-.147 1.76c-.932.064-2.6-1.586-2.6-1.586s.443 1.525-.296 1.558c-.739.034-1.516-1.755-1.516-1.755s-.67 1.197-1.43 1.204c-.761.008-.742-1.36-.803-1.2-.06.16-.546.853-1.04.788-.493-.064.053-.634.053-.634s-1.665.312-2.235.028c-.57-.283-.07-1.872-.07-1.872s-1.102.405-1.693.232c-.592-.173-.27-1.245-.27-1.245s-1.131.314-1.416-.118c-.284-.43.361-1.122.361-1.122s-.578.094-.796-.066c-.218-.16.656-.388.656-.388-1.29.3-3.189-.211-3.2-.513-.01-.302 1.292.107 1.292.107.012-.141.627-.462.627-.462s-2.196-1.015-1.808-1.606c.388-.591 1.451.12 1.451.12.275-.3.781-.18.781-.18s-.654-.267-.605-.86c.05-.592 1.431-.78 1.431-.78s-.737-.982-.47-1.477c.267-.494 1.244-.254 1.244-.254s-.59-.746-.42-1.075c.17-.328 1.204-.195 1.204-.195 4.889-.8 7.888-.446 7.888-.446.326-.351.863-.661 1.05-.634.188.027.155.236.155.236.061-.146.07-.29-.073-.36-.242-.116-.722.182-1 .382.226-.29.548-.518.697-.615a.035.035 0 0 0 .01-.048.036.036 0 0 0-.049-.01c-.18.117-.61.423-.834.805l-.04.032c-3.456-.372-8.284.31-8.284.31a3.864 3.864 0 0 0-.372.002.04.04 0 0 0-.022-.01c-.141-.008-.283-.055-.432-.104a2.024 2.024 0 0 0-.452-.111.035.035 0 0 0-.006.07c.148.013.294.062.436.108.078.026.158.051.238.072-.795.124-.67.61-.537.874-.146-.04-.255-.113-.418-.266a.036.036 0 0 0-.05.002.035.035 0 0 0 .001.05c.192.18.32.256.513.296.033.056.06.09.06.09s-.36-.385-1.027.34c-.498.541-.12 1.095.102 1.34-.257-.051-.45-.162-.535-.455a.035.035 0 0 0-.044-.024.035.035 0 0 0-.024.043c.104.36.37.472.64.517-.34.062-.82-.007-.974-.137a.035.035 0 0 0-.046.054c.104.087.331.15.576.17.122.01.249.009.366-.004-.2.052-.558.186-.98.532-.433.356-.261.86-.099 1.157-.215-.152-.464-.388-.522-.695a.036.036 0 0 0-.07.013c.05.262.227.475.41.63-.315-.195-.812-.314-1.332.3-.87 1.027 1.094 1.827 1.094 1.827s-.224-.066-.502-.094a1.323 1.323 0 0 0-.1-.026 3.039 3.039 0 0 1-.187-.045c-.173-.13-.314-.287-.305-.386a.035.035 0 0 0-.033-.038.035.035 0 0 0-.038.032c-.008.099.076.22.196.334a1.194 1.194 0 0 1-.658-.557.036.036 0 0 0-.063.034c.208.382.532.55.855.642-.217.011-.428.064-.563.201-.23.233.197.534.584.74-.43-.133-.915-.28-1.238-.028a.035.035 0 0 0-.006.05.035.035 0 0 0 .05.005c.296-.23.767-.085 1.183.043.132.04.26.08.379.107.086.038.142.06.142.06s-1.058-.123-1.843.308c-.784.431-.15 2.22 1.162 1.443 1.312-.777 2.807-1.185 2.807-1.185s-.695.226-.592 1.12c.065.565.62.648 1.02.632-.225.103-.462.168-.698.116a.036.036 0 0 0-.042.027.035.035 0 0 0 .027.042.845.845 0 0 0 .114.017c.273.023.54-.084.788-.217.137-.016.228-.037.228-.037s-.67.901.073 1.388c.539.353 1.14.264 1.431.189-.245.265-.377.534-.399.818a.035.035 0 0 0 .033.039.035.035 0 0 0 .038-.033c.022-.29.165-.563.436-.836l.032-.03a.912.912 0 0 0 .037-.014s-.337.859.223 1.401c.56.543 1.905.229 1.905.229" fill="#D6E7EB"/><path d="M32.843 21.92c-1.56-2.438-3.728-.695-3.728-.695s.203-1.314-.543-1.55c-.747-.235-1.06 1.96-1.06 1.96l.01.012c.756.442 2.004 1.432 2.567 2.096.169.218.321-.06.321-.06l2.178.318s1.184-.538.255-2.08" fill="#1C69EA"/><path d="M26.98 21.418c-.478.02-1.258.626-1.328.77-.07.143-.03.43-.03.432.283-.114.442-.205.442-.205 1.419.903 3.194 2.436 3.194 2.436s-.239.182-.674.444c.19.201.46.162.46.162.942-.287 1.325-1.28 1.325-1.28-.206-.693-2.912-2.779-3.39-2.76" fill="#FFF"/><path d="M29.043 25.457c.943-.287 1.326-1.28 1.326-1.28-.115-.388-1.015-1.214-1.868-1.86l-.006-.005s1.61 1.557 1.594 1.881c-.015.324-.47.64-.52.672-.05.031-3.06-2.463-3.515-2.701-.199-.105-.308-.082-.367-.023l-.003.002-.012.015a.202.202 0 0 0-.02.03c-.07.143-.03.43-.03.432.283-.114.442-.205.442-.205 1.419.902 3.194 2.436 3.194 2.436s-.239.182-.674.444c.19.201.46.162.46.162" fill="#D6E7EB"/><path d="M39.089 34.755c-.162.08-.297.165-.409.253.333.487 1.085 1.423 2.385 2.248.404-.653.738-1.283.916-1.811 0 0-1.341-1.45-2.892-.69" fill="#1C69EA"/><path d="M41.842 35.312c-.924 2.137-4 5.563-4.563 6.181.149.077.302.146.457.201 0 0 3.493-4.024 4.245-6.25 0 0-.049-.052-.139-.132" fill="#1C69EA"/><path d="M37.51 41.604l.382.177s1.312-1.388 1.8-2.295l-.208-.18" fill="#1C69EA"/></g></svg>