<svg xmlns="http://www.w3.org/2000/svg" xmlns:xlink="http://www.w3.org/1999/xlink" width="206" height="143"><defs><path id="a" d="M2.137.237C1.007.237.09 1.203.09 2.393v1.573c0 1.191.916 2.156 2.047 2.156h24.04v-.6h-.33c-.9 0-1.63-.768-1.63-1.716V2.554c0-.948.73-1.717 1.63-1.717h.33v-.6H2.136z"/><path id="c" d="M1.704.094C.774.094.02.837.02 1.753v1.21c0 .916.754 1.659 1.684 1.659H21.48V4.16h-.27a1.33 1.33 0 0 1-1.341-1.32v-.964c0-.729.6-1.32 1.34-1.32h.27V.094H1.705z"/><path id="e" d="M1.937 2.315L.123 6l2.533-2.324L12.947.12z"/><linearGradient id="f" x1=".568%" x2="87.639%" y1="60.879%" y2="33.965%"><stop offset="0%" stop-color="#E6E6E6"/><stop offset="100%" stop-color="#2879FF"/></linearGradient><path id="h" d="M1.14.44C.782.585.386 1.167.334 1.68.233 2.15.2 2.745.258 3.384L.372 4.63l.002.02c.231 2.682.653 5.935 1.042 7.45.19.138.747.04 1.127-.05.224-.052.39-.286.412-.582.11-1.499.295-4.166.033-8.084 1.86.146 4.458.157 5.318.199 1.679.08 3.78-1.084 3.854-1.926L12.137.76C11.894.243 9.204.045 6.53.045c-2.415 0-4.817.161-5.39.395"/></defs><g fill="none" fill-rule="evenodd"><path fill="#F9FCFF" d="M157.76 79.063c-23.434 5.5-53.034-6.405-66.113-26.593-13.079-20.187-4.685-41.01 18.749-46.51 23.434-5.501 53.033 6.405 66.112 26.592 13.079 20.187 4.685 41.011-18.749 46.511"/><path fill="#E7EEF9" fill-opacity=".4" d="M158.567 133.592s-11.303 5.782-21.314 7.74c-10.011 1.956-18.725.975-25.513-3.87-6.79-4.843-15.305-23.009-22.184-26.553-6.879-3.544-21.54-6.693-30.068-9.39-8.528-2.696-25.946-11.952-23.463-38.198C38.508 37.074 55.34 28.034 70.69 32.71c15.35 4.675 23.598 9.5 50.65 1.216S177.085 23.803 189.623 48c12.538 24.196 3.035 65.647-31.056 85.593"/><path fill="#E7EEF9" fill-opacity=".5" d="M50.858 87.591s7.491-4.14 14.692-6.15c7.202-2.01 13.951-2.35 19.942-.48 5.99 1.873 15.674 10.556 21.499 11.738 5.825 1.181 17.45 1.392 24.368 1.967 6.918.575 21.719 3.715 24.553 17.714 2.834 14-8.242 20.392-20.661 19.449-12.42-.943-19.508-2.661-38.43 4.338-18.923 7-40.24 10.783-54.039-.666s-14.065-34.107 8.076-47.91"/><path fill="#CDE0FF" d="M52.994 29.978s10.25-8.106 19.958-12.321c9.708-4.215 18.694-5.368 26.508-2.443 7.814 2.924 20.029 17.92 27.674 19.604 7.647 1.685 23.064 1.15 32.205 1.648 9.14.498 28.558 5.027 31.288 30.212 2.731 25.184-12.445 37.658-28.862 36.927-16.417-.73-25.7-3.29-51.337 10.907-25.636 14.197-54.213 22.746-71.687 3.055-17.475-19.69-16.157-60.79 14.253-87.589"/><path fill="#ECF1F8" d="M98.01 71.55c-2.054 30.342-25.58 56.813-52.546 59.125C18.5 132.987-1.696 110.265.36 79.923 2.414 49.583 25.94 23.112 52.906 20.8c26.965-2.311 47.16 20.41 45.105 50.752"/><path fill="#CDE0FF" fill-opacity=".3" d="M72.172 6.744S83.76-.646 98.52.931c14.759 1.576 19.085 8.894 22.71 11.963 3.626 3.068 6.588 11.24 34.97 12.297 28.38 1.058 33.681 15.02 34.67 17.788.99 2.768 3.816 11.88-3.266 18.295-7.081 6.416-11.73 8.197-1.893 13.434s11.37 12.661 9.494 18.077c-1.875 5.416-8.086 15.941-21.759 15.259-13.672-.682-12.876-2.583-18.25 2.832-5.373 5.416-8.105 11.265-19.053 13.018-10.947 1.753-19.415-4.205-27.389-2.432-7.973 1.774-13.679 7.603-17.45 9.483-3.77 1.88-21.84 4.84-30.554-2.845-8.714-7.685-10.029-5.631-12.74-3.524-2.712 2.108-12.845 6.635-23.89-2.431-11.046-9.066-11.82-19.325.515-29.815 12.335-10.491 9.386-14.12 2.928-18.016-6.458-3.897-18.458-10.655-19.354-23.849-.896-13.193 7.908-24.485 25.535-29.699 17.626-5.214 13.323.696 38.428-14.022l107.783-17.16"/><path fill="#CDE0FF" d="M30.801 113.633v5.364c0 8.574 7.024 15.589 15.608 15.589h106.5c8.584 0 15.608-7.015 15.608-15.59v-5.363H30.8z"/><path fill="#289163" d="M193.388 93.493a5.902 5.902 0 0 0 1.514 4.752c.238.254.506.499.625.826.08.221.085.463.158.687.215.653.993.991 1.676.901.682-.09 1.273-.513 1.78-.978.86-.791 1.596-1.826 1.642-2.993.02-.508-.092-1.014-.075-1.522.046-1.428 1.094-2.768.803-4.167-.155-.742-.687-1.373-1.343-1.755-.656-.382-1.427-.533-2.186-.55-2.401-.052-4.3 2.633-4.594 4.799"/><path fill="#56B89F" d="M195.606 110.11l-.194-.03 2.889-18.409.194.03z"/><path fill="#B9CAD2" d="M197.508 96.822l-2.089-4.698.18-.08 2.089 4.698zm.334-1.072l-.144-.133 1.624-1.743.144.134zm-.013-.878l-1.768-2.33.157-.119 1.767 2.33z"/><path fill="#B9CAD2" d="M197.044 93.592l-.182-.074.645-1.57.181.074zm-.334 9.398l-.153-.124 1.565-1.929.153.124z"/><path fill="#56B89F" d="M199.443 94.008l-.144-.133-1.404 1.507.577-3.68-.194-.03-.455 2.897-.78-1.029.623-1.518-.182-.074-.58 1.41-.709-.935-.156.118 1.742 2.297-.251 1.6-1.954-4.394-.18.08 2.077 4.672-.605 3.856c.065.01.131.016.196.019l.776-4.942 1.603-1.72z"/><path fill="#1E7750" d="M196.98 106.31c.02.293-.018.586-.048.877-.006.06-.012.124.015.178.028.056.085.091.14.118.451.217 1.05.062 1.337-.348.122-.175.19-.38.254-.584.332-1.034.97-2.494-.655-2.695-1.513-.187-1.103 1.563-1.043 2.454m5.543 1.63c.312-.088.515-.386.653-.679.42-.9 1.037-3.985-.902-2.862-1.047.606-1.4 4.008.25 3.541"/><path fill="#289163" d="M200.38 102.393a2.22 2.22 0 0 1 1.768.298c.213.142.406.33.505.566.604 1.432-1.318 4.537-3.072 3.89-1.904-.701-.867-4.319.798-4.754"/><path fill="#56B89F" d="M197.42 110.513l-.123-.01.25-3.25.123.01z"/><path fill="#B9CAD2" d="M197.557 108.444l-.072-.1.464-.328.071.1z"/><path fill="#56B89F" d="M199.37 111.213l-.146-.018.563-4.41.146.018z"/><path fill="#F1D1B6" d="M199.536 108.89l-.568-.866.123-.08.568.866z"/><path fill="#56B89F" d="M202.077 111.072h.148v-3.48h-.148z"/><path fill="#56B89F" d="M205.93 111.771a.672.672 0 0 0-.305-.116c-.3-.03-.606.07-.9.004-.38-.085-.642-.42-.965-.637-1.122-.755-2.616.03-3.967-.017-1.481-.052-2.776-1.125-4.256-1.198-1.492-.073-2.95.887-4.41.57-.586-.127-1.113-.453-1.696-.595-.897-.218-1.857.022-2.666.466-.488.267-1.623.851-1.757 1.523h20.922z"/><path fill="#FCC14B" d="M195.958 113.936h-48.02a1.19 1.19 0 1 1 0-2.377h48.02a1.19 1.19 0 1 1 0 2.377"/><path fill="#167049" d="M35.5 111.556c-1.174-1.461-2.628-3.027-4.097-4.51-.203.13-1.748 1.06-3.878.507a19.069 19.069 0 0 0 1.624 2.512c.456.59.957 1.136 1.492 1.622 1.732.832 4.307.053 4.859-.131"/><path fill="#167049" d="M31.28 106.922a134.292 134.292 0 0 0-6.611-6.177c.167.764.57 1.592.844 2.314a46.4 46.4 0 0 0 1.013 2.472c.277.618.573 1.228.89 1.821 2.029.576 3.538-.232 3.864-.43m-1.697-1.878c1.549 1.49 3.219 3.175 4.672 4.816-.046-.675-.297-3.592-1.331-5.408-1.325-1.324-2.85-2.34-4.416-2.983.705 1.53 1.08 3.553 1.083 3.574l-.008.001z"/><path fill="#167049" d="M28.317 101.393a11.16 11.16 0 0 0-.697-.248c-.895-.284-1.99-.639-2.9-.556.747.65 2.599 2.285 4.698 4.298-.11-.543-.487-2.231-1.101-3.494m6.087 8.618h-.016c1.048 1.192 1.974 2.356 2.65 3.401.057-.247.026-.614-.067-1.164a14.426 14.426 0 0 0-3.707-7.445c.99 2.114 1.139 5.175 1.14 5.208m-3.387 2.002c.75.624 1.56 1.129 2.4 1.468.795.32 1.619.496 2.427.46.63-.027.982-.081 1.133-.36a22.921 22.921 0 0 0-1.362-1.881c-.37.13-2.757.923-4.598.313"/><path fill="#62C79B" d="M34.388 110.01l.016.001c-.001-.033-.15-3.093-1.14-5.208a14.084 14.084 0 0 0-.34-.35c1.034 1.815 1.285 4.732 1.33 5.407-1.452-1.64-3.122-3.326-4.671-4.816h.008c-.004-.022-.378-2.044-1.083-3.575a10.814 10.814 0 0 0-.191-.077c.614 1.264.99 2.952 1.101 3.494a139.509 139.509 0 0 0-4.698-4.297c-.027.003-.054.004-.081.008l.03.148c.991.864 3.812 3.36 6.611 6.177-.326.198-1.835 1.006-3.864.43.036.068.073.134.11.201 2.129.552 3.674-.376 3.877-.507 1.468 1.483 2.923 3.049 4.097 4.51-.552.184-3.127.963-4.86.131.124.112.25.221.377.327 1.84.61 4.227-.183 4.598-.314a23 23 0 0 1 1.362 1.881.656.656 0 0 0 .061-.169c-.676-1.045-1.602-2.21-2.65-3.401"/><path fill="#289163" d="M36.711 109.916c-.418-2.682-1.15-5.748-1.974-8.738-.41-.059-3.462-.58-6.062-3.23a22.705 22.705 0 0 0 .146 4.227c.142 1.066.39 2.129.737 3.16 1.779 2.56 6.193 4.239 7.153 4.58"/><path fill="#289163" d="M34.668 100.928c-1.581-5.692-3.476-11.065-4.153-12.94-.43.968-.573 2.233-.81 3.26a50.077 50.077 0 0 0-.702 3.595c-.141.92-.249 1.851-.31 2.786 2.432 2.578 5.328 3.19 5.975 3.299m-.811-3.631c.936 3.077 1.876 6.477 2.54 9.62.527-.757 2.723-4.08 2.82-7-.757-2.684-2.075-5.238-3.777-7.437-.324 2.3-1.557 4.798-1.57 4.824l-.013-.007z"/><path fill="#289163" d="M35.23 92.213a22.1 22.1 0 0 0-.792-.937c-1.047-1.17-2.323-2.608-3.713-3.403a199.313 199.313 0 0 1 3.033 9.098c.316-.68 1.252-2.828 1.472-4.758m1.25 15.009l-.023-.017c.471 2.276.79 4.405.852 6.164.3-.206.578-.623.925-1.295 1.872-3.611 2.094-7.643 1.167-11.457-.422 3.194-2.894 6.569-2.92 6.605m-6.664-1.176a15.267 15.267 0 0 0 2.187 3.88c.87 1.11 1.91 2.095 3.11 2.842.938.583 1.495.867 1.958.72-.028-.994-.141-2.11-.32-3.309-.652-.221-4.805-1.703-6.935-4.133"/><path fill="#CDE0FF" d="M36.457 107.205l.023.017c.027-.036 2.499-3.411 2.92-6.605a20.116 20.116 0 0 0-.183-.7c-.097 2.92-2.293 6.243-2.82 7-.665-3.143-1.604-6.543-2.54-9.62l.013.007c.013-.026 1.246-2.524 1.57-4.823l-.21-.268c-.22 1.93-1.156 4.077-1.472 4.758a200.274 200.274 0 0 0-3.033-9.098c-.04-.023-.082-.048-.123-.07-.03.06-.06.121-.087.185.677 1.875 2.572 7.248 4.153 12.94-.647-.108-3.543-.72-5.974-3.299-.008.106-.014.212-.02.318 2.6 2.65 5.654 3.172 6.063 3.23.825 2.991 1.556 6.057 1.974 8.739-.96-.342-5.374-2.02-7.153-4.58.08.238.167.475.259.71 2.13 2.43 6.283 3.912 6.935 4.133.179 1.199.292 2.315.32 3.309a.89.89 0 0 0 .237-.119c-.061-1.76-.381-3.888-.852-6.164"/><path fill="#1E7750" d="M169.577 56.213c.556-.282 1.238-.508 2.073-.723l-2.028 3.684c-.043-.477-.134-1.718-.045-2.961m-.815 4.828c1.091-.346 2.547-1.37 3.496-2.1-.194.95-.796 1.78-1.922 2.758-2.247 1.953-.473 2.3-.047 2.226.427-.075 1.892-1 2.419.047.027.053.047.11.064.17-2.08 2.032-7.15 4.156-8.252 4.604l4.242-7.705zm-3.481 6.019c-.28-.446-1.515-2.727-1.124-7.75 1.093-.053 1.123 1.612 1.29 2 .171.398 1.433 1.69 1.839-1.258.276-2.004.852-3.051 2.13-3.754-.102 1.51.057 2.978.073 3.118l-4.208 7.643z"/><path fill="#1E7750" d="M168.875 60.834l2.898-5.263c.44 1.293.641 2.278.523 3.148-.9.696-2.335 1.725-3.42 2.115m3.93 3.482c.123 1.1-1.287 2.877-3.66 4.752a21.645 21.645 0 0 1-2.276 1.544 40.48 40.48 0 0 1-2.332 1.293 40.89 40.89 0 0 1-1.772.868c-.121.055-.304.021-.436-.05l2.069-3.757c.68-.27 6.124-2.466 8.407-4.65"/><path fill="#0A87B1" d="M164.003 59.329c-.412 5.31.985 7.598 1.186 7.897l-2.976 5.406-.009-.011a.518.518 0 0 1-.078-.28c-.013-.225-.048-.442-.076-.663a50.98 50.98 0 0 1-.129-1.097 40.894 40.894 0 0 1-.2-2.674 21.917 21.917 0 0 1 .044-2.824c.294-3.27 1.113-5.527 2.238-5.754"/><path fill="#3AAF7C" d="M164.003 59.329a.745.745 0 0 1 .08-.014c.026-.003.05-.004.074-.005-.391 5.023.844 7.304 1.124 7.75l4.208-7.644a19.416 19.416 0 0 1-.073-3.118c.052-.03.106-.057.16-.085-.088 1.243.003 2.484.046 2.961l2.028-3.684.054-.014c.025-.005.035.002.046.025l.023.07-2.898 5.263c1.086-.39 2.52-1.419 3.42-2.115-.01.075-.022.15-.036.222-.95.73-2.406 1.754-3.497 2.1l-4.242 7.705c1.103-.448 6.173-2.572 8.252-4.605a.985.985 0 0 1 .034.175c-2.283 2.184-7.728 4.38-8.407 4.65l-2.068 3.757a.417.417 0 0 1-.118-.091l2.976-5.406c-.201-.299-1.598-2.586-1.186-7.897"/><path fill="#289163" d="M163.514 58.944c.421-.338.958-.65 1.628-.981l-1.062 3.483a16.992 16.992 0 0 1-.566-2.502m.169 4.238c.863-.488 1.915-1.615 2.59-2.402.004.84-.358 1.65-1.138 2.68-1.557 2.054.008 2.034.357 1.894.348-.139 1.425-1.184 2.058-.39.033.04.06.085.085.132-1.4 2.093-5.32 4.795-6.174 5.37l2.222-7.284zm-1.878 5.719c-.317-.327-1.77-2.041-2.333-6.368.916-.24 1.239 1.166 1.45 1.466.215.306 1.516 1.177 1.334-1.393-.123-1.748.179-2.738 1.136-3.561.184 1.297.58 2.514.618 2.63l-2.205 7.226z"/><path fill="#289163" d="M163.743 62.986l1.518-4.977c.603 1.018.95 1.817 1.004 2.576-.639.75-1.672 1.877-2.522 2.401m3.952 2.252c.3.911-.578 2.668-2.256 4.679a18.788 18.788 0 0 1-1.654 1.713 35.165 35.165 0 0 1-1.746 1.51c-.443.36-.89.716-1.347 1.052-.093.068-.254.072-.378.034l1.083-3.552c.528-.349 4.752-3.178 6.298-5.436"/><path fill="#FAB448" d="M159.345 62.576c.596 4.575 2.188 6.266 2.412 6.483l-1.559 5.11-.01-.007a.449.449 0 0 1-.116-.223c-.051-.188-.119-.366-.182-.548a38.59 38.59 0 0 1-.305-.907 35.604 35.604 0 0 1-.647-2.231 19.038 19.038 0 0 1-.461-2.368l-.004-.034c-.334-2.824-.041-4.883.872-5.275"/><path fill="#B5EDD5" d="M159.345 62.576a.858.858 0 0 1 .065-.026c.02-.007.041-.012.062-.018.563 4.328 2.016 6.042 2.334 6.37l2.204-7.228a16.828 16.828 0 0 1-.618-2.63c.04-.033.08-.067.122-.1.146 1.07.444 2.106.566 2.502l1.062-3.483.043-.022c.02-.009.03-.005.044.014l.032.054-1.518 4.977c.85-.524 1.883-1.651 2.522-2.4.004.064.008.13.008.194-.675.787-1.727 1.914-2.59 2.402l-2.222 7.285c.855-.576 4.774-3.279 6.174-5.37a.906.906 0 0 1 .06.141c-1.546 2.258-5.77 5.087-6.298 5.436l-1.083 3.552a.362.362 0 0 1-.116-.056l1.56-5.11c-.225-.218-1.817-1.91-2.413-6.484"/><path fill="#2879FF" d="M162.257 110.396l.001-79.145c0-3.732-3.337-6.785-7.415-6.785l-111.71-.003c-4.08 0-7.417 3.053-7.417 6.785l-.001 79.145c0 3.732 3.337 6.786 7.415 6.786l111.71.003c4.08 0 7.417-3.054 7.417-6.786"/><path fill="#FFF" d="M146.78 115.679v-89.78l-103.647-.002-.002 89.78zm5.72-49.507l.06 9.303c.008 1.188.637 2.152 1.402 2.148l.33-.002c.765-.004 1.381-.974 1.374-2.162l-.06-9.303c-.008-1.189-.637-2.152-1.402-2.148l-.33.002c-.765.004-1.381.974-1.374 2.162"/><path fill="#2879FF" d="M43.132 28.382h103.649v-2.59H43.132zm0 87.32h103.649v-2.59H43.132z"/><path fill="#0A87B1" d="M65.52 121.14l5.88-43.277.568.11-5.863 43.167zm-8.337 0l7.3-43.29.565.135-7.277 43.155z"/><path fill="#0A87B1" d="M62.672 90.677h7.325v-.688h-7.325zm-4.164 23.958h8.283v-.687h-8.283zm4.164-35.871h7.574v-1.633h-7.574z"/><path fill="#00ABC9" d="M74.124 121.14l-5.752-43.77.57-.108 5.766 43.878zm7.082 0l-5.82-43.77.57-.108 5.834 43.878z"/><path fill="#00ABC9" d="M69.624 85.023h7.026v-.688h-7.026zm1.057 7.337h7.026v-.688h-7.026zm.847 8.367h7.026v-.688h-7.026zm1.609 8.94h7.026v-.688h-7.026zm1.057 8.367h7.026v-.687h-7.026zm-6.984-39.27h10.095v-1.633H67.21z"/><path fill="#C080B1" d="M78.543 60.54l-.458-.378.001-.004.409.324a.318.318 0 0 0 .09.048l.04.015a.05.05 0 0 0 .064-.063.39.39 0 0 0-.104-.16l-.413-.382s-.114-.15-.327-.285l.203.06c.042.01.137.02.168-.038l.018-.037c-.06-.035-.296-.137-.379-.178-.085-.042-.604-.038-.604-.038l-.185-.234-.305.315.198.189.138.23.387.434h.001l.353.32a.527.527 0 0 0 .094.062l.044.023c.042.022.092.01.084-.02a.32.32 0 0 0-.09-.14l-.15-.146.375.27a.627.627 0 0 0 .109.06l.051.023c.05.022.104.008.092-.023a.351.351 0 0 0-.112-.143l-.296-.237.337.246a.697.697 0 0 0 .13.073l.062.026c.059.025.124.005.11-.035a.427.427 0 0 0-.135-.177"/><path fill="#CC7F7F" d="M76.83 59.578l.391-.177c-.127-.411-.5-1.383-1.113-2.47a.48.48 0 0 0-.006-.01l-.415-.745c-.622-1.117-1.7-2.154-2.202-1.948l-.17.069c-.505.207.017 1.48.88 2.505l.576.681.009.01c.859 1.03 1.691 1.793 2.05 2.085"/><path fill="#2879FF" d="M79.551 67.758a22.657 22.657 0 0 1-.277-1.665c-1.568-12.23 7.09-23.415 19.335-24.98a22.3 22.3 0 0 1 8.685.591l-5.846 21.555-21.897 4.5z"/><path fill="#F6A9A9" d="M76.247 44.974c-.185.88-.754 1.506-1.272 1.398-.516-.109-.785-.91-.6-1.79.185-.881.754-1.507 1.271-1.399.517.109.786.91.601 1.791"/><path fill="#F6A9A9" d="M76.11 45.367s.044.431.122.581c.079.15-.01.153-.28.09a2.059 2.059 0 0 1-.39-.122l.547-.549z"/><path fill="#F6A9A9" d="M74.025 46.605l.759.325a.27.27 0 0 0 .337-.108l.755-.836-.02-1.409-1.254-.193-.947 1.549.37.672z"/><path fill="#F6A9A9" d="M73.524 47.925l-.838-.666.935-1.173.838.666s-.548.352-.935 1.173"/><path fill="#CC7F7F" d="M69.37 75.175l-.068.78 1.458.64-.698-1.332z"/><path fill="#023149" d="M71.671 77.092l-1.37-.025a.46.46 0 0 1-.319-.137l-.547-.56-.012.681-.206-.004-.173-.772a.65.65 0 0 1 .09-.497l.107-.164a.082.082 0 0 1 .12-.018l.778.647c.15.124.331.204.525.23l.162.023c.117.016.231.045.34.088l.209.081a.746.746 0 0 1 .252.24l.08.123a.041.041 0 0 1-.036.064"/><path fill="#F6A9A9" d="M61.197 58.966l-.337-.706-1.581.186 1.278.795z"/><path fill="#023149" d="M58.241 58.48l1.193-.672a.458.458 0 0 1 .345-.043l.756.204-.335-.593.179-.1.541.577c.12.128.183.3.175.475l-.009.195a.082.082 0 0 1-.095.077l-.998-.164a1.04 1.04 0 0 0-.57.066l-.151.064a1.482 1.482 0 0 1-.338.096l-.22.036a.743.743 0 0 1-.339-.08l-.132-.066a.04.04 0 0 1-.002-.072"/><path fill="#115AD3" d="M72.1 57.332c-.713-1.245-1.7-2.042-3.05-1.444l-.385.17c-1.964.869-1.212 3.153-.44 4.818a22.245 22.245 0 0 0 2.086 3.581c.67.938 1.5 2.168 2.434 2.805.37.252.682.29.875.204.193-.085.382-.345.46-.795.246-1.406-.163-3.296-.455-4.707-.243-1.173-.704-3.199-1.525-4.632"/><path fill="#115AD3" d="M70.286 75.655c.746-1.281 2.2-4.119 3.024-6.507l.007-.018.39-1.11c.453-1.287.35-2.488-.23-2.683l-.195-.065c-.581-.194-1.419.691-1.872 1.978l-.39 1.11-.007.02c-.857 2.39-1.478 5.377-1.692 6.825 0 0 .592.567.965.45"/><path fill="#2879FF" d="M70.577 58.905c-.013-1.35-.072-3.246-1.33-3.385l-.357-.04c-1.827-.202-2.563 2.801-2.682 4.521-.09 1.303-.07 2.611.06 3.897.108 1.079.213 2.47.644 3.424.17.378.387.554.567.574.18.02.429-.105.675-.436.77-1.036 1.254-2.771 1.626-4.06.309-1.072.81-2.942.797-4.495"/><path fill="#2879FF" d="M60.278 59.225c.73 1.347 2.46 4.17 4.142 6.221l.013.016.778.96c.902 1.113 2.043 1.725 2.55 1.367l.17-.12c.506-.358.185-1.55-.717-2.663l-.779-.96-.013-.016c-1.667-2.08-4.006-4.315-5.19-5.328 0 0-.848.152-.954.523m5.907 2.81c.691-.458 1.316-.894 1.95-1.69.958-1.206 2.719-5.236.118-5.67-3.175-.531-4.002 3.738-2.068 7.36"/><path fill="#C080B1" d="M74.777 48.936c-.062-.949-.747-1.7-1.529-1.678l-.262.007c-.782.022-1.365.809-1.303 1.758l.054.819.001.013c.12 2.162 1.138 4.96 1.45 5.42.17.25.348.354.48.35.132-.003.297-.116.433-.376.25-.476.896-3.32.73-5.48v-.014l-.054-.819z"/><path fill="#F9A230" d="M72.986 47.265l.262-.007c.782-.022 1.467.73 1.53 1.678l.053.82v.013c.126 1.638-.215 3.669-.497 4.762.47.367.99.992 1.353 1.645l.1.179c-.407.297-.821.584-1.244.858l-.347-.411a5.942 5.942 0 0 1-.871-1.358 1.229 1.229 0 0 1-.137-.17c-.312-.46-1.33-3.257-1.45-5.419l-.001-.013-.054-.819c-.063-.949.52-1.736 1.303-1.758"/><path fill="#FFB839" d="M66.19 54.005c1.474-3.669 3.852-6.359 3.852-6.359 1.145-1.085 2.052-1.457 3.253-.91 1.2.546 1.862 1.87 1.447 3.048 0 0-2.259 2.132-2.493 6.785-.026.51.572 1.403-.486 1.33 0 0-3.656-.028-6.139-2.423a.511.511 0 0 1-.009-.732c.218-.216.469-.473.575-.74"/><path fill="#DD9E4A" d="M74.228 48.39h-2.154c-.07.377-.108.76-.133 1.144-.087 1.31-.04 2.637.085 3.944.07.733.17 1.461.297 2.186.455-4.025 2.42-5.88 2.42-5.88.087-.25.125-.505.12-.759l-.635-.635z"/><path fill="#F6A9A9" d="M80.85 59.507l-.524-.412.001-.005.467.353a.36.36 0 0 0 .102.052l.046.015a.056.056 0 0 0 .07-.072.434.434 0 0 0-.12-.177l-.474-.418s-.132-.166-.374-.311l.23.062c.046.011.153.018.186-.047l.02-.042c-.068-.038-.337-.146-.43-.19-.097-.045-.68-.027-.68-.027l-.212-.258-.335.362.227.206.161.255.445.477.001.001.405.348a.621.621 0 0 0 .106.068l.05.025c.049.024.104.01.094-.024a.362.362 0 0 0-.104-.155l-.173-.16.428.292a.715.715 0 0 0 .125.067l.058.024c.056.023.117.006.103-.03a.4.4 0 0 0-.13-.156l-.338-.259.384.267c.044.03.094.057.149.079l.07.028c.066.027.138.001.121-.042a.48.48 0 0 0-.155-.196"/><path fill="#DCA1C8" d="M74.775 48.45c-.257-.945-1.009-1.564-1.68-1.382l-.224.06c-.67.183-1.004 1.096-.747 2.042l.222.816.004.013c.566 2.158 2.044 4.775 2.411 5.176.2.219.377.286.49.256.113-.03.23-.178.292-.469.114-.531.062-3.535-.543-5.682l-.003-.014-.222-.816z"/><path fill="#F6A9A9" d="M79.126 58.653l.28-.371c-.258-.462-.93-1.526-1.854-2.639l-.01-.011-.627-.765c-.943-1.147-2.255-2.02-2.622-1.569l-.123.151c-.369.453.54 1.834 1.662 2.773l.746.625.011.009c1.119.946 2.119 1.573 2.537 1.797"/><path fill="#FFB839" d="M72.871 47.129l.225-.061c.67-.182 1.422.437 1.679 1.383l.222.815.003.014c.3 1.066.465 2.344.54 3.425.038.549.286 1.06.69 1.435.237.22.47.466.685.727l.086.105c-.27.52-.588.999-.945 1.438l-.224-.187a7.392 7.392 0 0 1-.884-.882 1.126 1.126 0 0 1-.187-.166c-.367-.401-1.845-3.018-2.41-5.176l-.005-.013-.222-.816c-.257-.946.078-1.86.747-2.041"/><path fill="#23233B" d="M75.027 44.197c.226-.216.5-.322.79-.353a2.558 2.558 0 0 0-.698-.746c-1.187-.86-2.463.738-3.879 1.946-1.355 1.157-2.968.975-3.784.987-2.232.032-2.62 2.02-2.192 3.047.428 1.027 2.297.943 3.368.639 1.072-.304 1.159-1.837 1.774-2.347.697-.578 1.275-.52 2.185-.443 1.312.11 1.368-1.003 1.69-1.669a.69.69 0 0 1 .351-.342c.065-.27.189-.52.395-.719"/><path fill="#23233B" d="M75.969 43.1c.24.116.462.378.492.683.018.181-.01.354-.257.49-.247.135-.372.156-.69.037-.32-.119-.494.066-.598.136-.104.071-.293.27-.88.38-.586.111-1.732-.62-1.392-.983.3-.321.8-.702 1.158-.85.344-.144 1.075-.424 2.167.107"/><path fill="#F6A9A9" d="M74.426 44.642c-.065-.19-.39-.18-.605.265-.119.247-.058.977.358.697 0 0 1.115-1.109.682-1.109-.058 0-.355.384-.435.147"/><path fill="#CC7F7F" d="M115.572 82.551c.125.02.242.143.303.143.044 0 .095-.01.141-.02.008 0 .014.003.022.003.215.014.439.027.627.068l.036.021c.146.164.274.438.274.438l.227.052-.285.41s-.11-.06-.29-.134c-.215-.088-.6-.36-.6-.36l-.428-.26a.207.207 0 0 1-.077-.081l-.125-.24a.138.138 0 0 1-.015-.052l-.03-.384c.217-.022.22.396.22.396"/><path fill="#CC7F7F" d="M116.926 83.219c.381-.003 1.288.054 2.319.286.003 0 .007 0 .01.002l.706.154c.245.053.488.13.715.22a.432.432 0 0 0 .521-.166c.1-.152.213-.317.336-.492.27.566.642 1.072 1.037 1.564-.274.164-.517.3-.713.402v.002c-.143.491-1.335.389-2.331-.076l-.663-.31c-.004 0-.006-.003-.01-.004-1-.46-1.759-.968-2.052-1.197l.125-.385z"/><path fill="#FFB839" d="M126.202 61.511c1.197 9.338-3.489 18.072-11.18 22.488L103.74 64.383l5.923-21.836c8.58 2.326 15.34 9.61 16.54 18.964"/><path fill="#023149" d="M123.55 109.063l.51 1.896s-.563.387-1.096.072l-.362-1.692s.976-.32.948-.276"/><path fill="#023149" d="M123.026 110.085s.18.527-.096.715c-.276.189-.573.146-1.042.08-.606-.086-1.545.756-.36.69.175-.01 1.145-.087 1.6-.458.223-.18.19-.614.125-.736l-.227-.291z"/><path fill="#0C232B" d="M121.738 90.036c1.22-1.195 2.574-1.825 3.822-.819l.354.286c1.813 1.462-3.177 8.938-4.168 10.238-1.26 1.655-3.536 3.849-4.249 2.734-.828-1.295-.72-2.505-.72-2.734 0-1.834.82-3.487 1.644-4.974.685-1.235 1.913-3.357 3.317-4.731"/><path fill="#0C232B" d="M122.707 110.25c-.95-1.037-2.824-3.391-3.937-5.484l-.01-.016-1.458-2.591c-.533-1.28-.091-1.931.573-2.284 0 0 2.644 1.048 2.647 1.053 1.15 2.087 2.939 7.265 3.28 8.614 0 0-.654.718-1.095.708"/><path fill="#023149" d="M127.872 109.173l.75 1.815s-.51.456-1.08.212l-.574-1.632s.927-.442.904-.395"/><path fill="#023149" d="M127.599 110.18s.15.536-.138.709c-.286.172-.58.112-1.045.018-.6-.12-1.586.666-.4.668.176 0 1.148-.02 1.625-.364.232-.167.226-.601.167-.727l-.21-.304z"/><path fill="#2E4247" d="M127.277 110.792c-1.098-1.164-3.305-3.803-4.71-6.138-.004-.006-.008-.011-.011-.018l-.662-1.083c-.767-1.256-.885-2.58-.264-2.959l.208-.126c.62-.378 2.309-.184 2.312-.178 2.917 4.72 3.607 8.24 4.135 9.738 0 0-.561.783-1.008.764"/><path fill="#2E4247" d="M122.647 89.095c.783-1.517 2.654-1.16 4.154-.596l.426.16c2.182.82 1.361 3.549.516 5.56-.64 1.523-3.237 7.677-4.268 8.508-.408.328-1.55.332-1.764.251-.215-.08-.451-.887-.54-1.402-.28-1.612-.102-3.922.071-5.611.144-1.403.504-5.125 1.405-6.87"/><path fill="#F6A9A9" d="M126.078 75.502c-.693.52-1.207 1.825-.994 2.062.448.498 1.858.527 2.55.006.694-.52.908-1.406.478-1.977-.43-.571-1.341-.612-2.034-.091"/><path fill="#F6A9A9" d="M125.423 78.857l1.077.457.696-1.632-1.272-.46s-.047.993-.5 1.635m.788-3.183s-.59.032-.765-.02c-.167-.052-.27-.023-.202.216.068.24.286.414.286.414l.681-.61z"/><path fill="#DE7104" d="M121.754 84.417c.179.181.365.355.556.523.908-.523 2.283-1.441 3.353-2.433-.23-1.064-.47-2.126-.732-3.183-.061.05-.12.103-.178.16l-.593.596-.01.01c-1.138 1.123-2.326 2.67-2.964 3.642.176.238.36.472.568.685"/><path fill="#F57C02" d="M127.107 78.664c-.169-.12-.001-.255-.152-.265l-1.27.06c-.392-.036-.21.185-.278.236-1.815 1.375-2.31 5.82-3.188 9.553a1.841 1.841 0 0 0-.036.21.691.691 0 0 0-.086.374c.047.8 1.483 1.622 3.325 1.85 1.645.204 3.082-.124 3.496-.773l.003-.006a1.378 1.378 0 0 0 .182-.651c.07-1.472.226-2.868.108-4.122-.215-5.72-2.038-6.473-2.104-6.466"/><path fill="#DE7104" d="M122.22 88.248c.415-1.771.746-3.701 1.172-5.388l.984-.083c.93-.08 1.541-2.125 2.48-2.154.317 2.85-1.682 5.95-3.47 7.203a7.678 7.678 0 0 1-1.235.7.843.843 0 0 1 .032-.068 1.81 1.81 0 0 1 .036-.21"/><path fill="#023149" d="M127.296 77.625s-.151-.093-.023-.376c.094-.209.007-.476-.082-.543-.088-.067-.337-.241-.226-.663.04-.153.187-.345.133-.51a.298.298 0 0 0-.093-.123c-.272-.244-.682-.318-.888-.637-.2-.31.04-.735.388-.704.349.03.5.73.81.784.158.027.286-.064.434-.095.175-.037.373.011.533.085.348.16.62.439.654.833.019.23.019.477.21.641.1.087.218.152.322.235.182.146.32.356.352.587.074.533-.456.874-.932.9-.403.021-.45.263-.516.454-.121.347-.737.625-1.149.025-.168.075-.352-.07-.352-.07l.025-.43s.3-.193.4-.393"/><path fill="#F6A9A9" d="M127.606 77.002c-.1.232-.288.375-.419.319-.13-.057-.154-.291-.054-.524.101-.232.289-.375.42-.318.13.056.154.29.053.523m-11.671 7.541c.702.183 3.092.31 3.092.31.46.01.95.07 1.408.173a1.2 1.2 0 0 0 1.376-.7c.502-1.192 1.216-2.644 2.009-3.765l.009-.013.547-.79c.635-.915 1.673-1.292 2.32-.842l.217.15c.647.45.656 1.557.022 2.472l-.548.79-.01.013c-1.233 1.814-3.325 3.734-4.22 4.408-.37.72-2.39.524-3.735-.076l-.776-.346-.01-.005c-.98-.428-1.631-1.149-1.842-1.322l.141-.457z"/><path fill="#F6A9A9" d="M115.94 84.571s-.126-.476-.293-.602c-.056-.043-.1-.08-.134-.104a.341.341 0 0 1-.115-.142l-.126-.288s-.146.005-.142.15a.716.716 0 0 0 .088.246.027.027 0 0 1-.02.04.947.947 0 0 1-.25.004c-.06-.01-.153-.152-.274-.194 0 0 .072-.412-.145-.428l-.039.383a.135.135 0 0 0 .006.054l.08.258a.208.208 0 0 0 .061.094l.376.33s.33.336.527.461c.164.105.261.183.261.183l.354-.352-.214-.093z"/><path fill="#F57C02" d="M123.926 85.185c.85-.833 1.779-1.855 2.452-2.844l.009-.013.548-.79c.634-.915.624-2.021-.022-2.471l-.217-.151c-.646-.45-1.685-.073-2.32.842l-.547.79-.009.013c-.557.787-1.075 1.738-1.508 2.648.627.57 1.152 1.26 1.614 1.976"/><path fill="#F6A9A9" d="M96.706 81.684s.08-.182.037-.247a14.196 14.196 0 0 1-.215-.355l-.031-.127s-.195-.183-.229-.219c-.033-.035-.076-.097.021-.113a.467.467 0 0 1 .334.114.36.36 0 0 0 .173.103s.122-.26.17-.322c0 0 .083-.44.134-.618.051-.178.08-.274.132-.27.052.003.08.116.056.313-.02.147-.048.363-.058.463-.001.014.017.02.023.007l.294-.536c.056-.1.148-.256.21-.226s-.06.375-.116.53a5.73 5.73 0 0 1-.114.285c-.004.01.008.017.014.01.089-.109.3-.365.371-.43.09-.084.145-.1.17-.078.024.022-.01.158-.074.269-.05.088-.22.34-.288.442-.006.009.005.019.013.013.077-.056.235-.172.303-.227.09-.072.165-.11.2-.068.035.042-.14.244-.207.319a4.934 4.934 0 0 1-.232.226s-.13.397-.205.513c-.076.116-.127.21-.37.363a2.952 2.952 0 0 0-.053.266l-.555-.167.092-.233z"/><path fill="#115AD3" d="M97.305 81.9l-.593-.24a.387.387 0 0 0-.508.219c-.2.523-.561 1.39-1.021 2.23-.24.438-.743 1.354-1.58 2.412-1.913.91-5.687 1.972-5.687 1.972-1.003.381-1.584 1.234-1.276 2.009l.104.26c.308.774 1.372 1.093 2.375.712l.866-.328.014-.007c1.65-.608 3.248-1.486 4.267-2.34.858-.596 1.776-1.877 2.211-3.085l.29-.803a.09.09 0 0 0 .004-.012c.365-.992.652-2.01.761-2.585a.373.373 0 0 0-.227-.414"/><path fill="#F57C02" d="M113.307 85.629a22.59 22.59 0 0 1-8.408 2.819c-11.835 1.513-22.703-6.39-25.057-17.877l22.182-4.559 11.283 19.617z"/><path fill="#CC7545" d="M87.763 88.168s-.728 1.214-1.692.642l-.032-1.01-.196-.657 1.842.001s-.208.336.078 1.024"/><path fill="#CC7F7F" d="M86.594 87.715c.196.174.49.509.765.532a.488.488 0 0 0 .382-.115c-.085-.51-.056-.988-.056-.988l-1.658-.043c.156.233.357.426.567.614"/><path fill="#941800" d="M87.773 85.665s.21-.272.24-.526c.029-.254-.136-.447-.136-.447s.266-.304-.002-.495c-.268-.192-1.387.19-1.387.19l1.285 1.278z"/><path fill="#CC7545" d="M87.3 84.717c1.083 1.555.736 2.563.48 2.725-.537.34-1.831.004-2.33-.649-.5-.653-.467-1.516.072-1.927.54-.411 1.31-.824 1.779-.15"/><path fill="#941800" d="M87.74 83.49c-.227-.157-.536-.37-1.036.28-.12.156-.378-.058-.86.058-.743.178-.631.597-1.046.834-.283.161-.191.405-.385.923-.125.333.265.492.183.804-.096.366.537.319.593.552.134.557.666.668.864.848.059.054.026-.238.021-.318-.021-.355-.31-.638-.31-.653-.157.008-.546-.046-.546-.632 0-.63.518-.039.518-.039s.028-.307-.062-.487c-.18-.364.194-.596.748-.645.24-.02.25-.33.448-.327.327.005.572-.233.803-.137.124.052.233-.155.333-.231.351-.264.114-.568-.267-.83"/><path fill="#941800" d="M88.021 86.331s-.248-.127-.422-.091c-.175.035-.667.049-.85.377-.185.327-.309.264-.432.138-.123-.125-.532-.944-.675-1.001-.142-.058.192.723.192.723s.145.16.212.304c.067.143.153.25.186.415.032.165.148.396.26.454.111.057.415.166.822.014.406-.151.537-.193.636-.463.1-.27.174-.552.071-.87"/><path fill="#023149" d="M81.13 117.885l-.66 1.428s.217.608.8.662l.56-1.426s-.697-.713-.7-.664"/><path fill="#023149" d="M81.609 119.05s-.292.47-.185.766c.107.298.359.429.755.637.512.27.764 1.433-.106.727-.13-.104-.83-.698-.974-1.234-.07-.262.194-.576.313-.633l.197-.263zm9.603.604l.188 1.562s.505.403 1.029.143l-.272-1.507s-.969-.241-.945-.198"/><path fill="#023149" d="M92.232 120.395s-.003.552.244.75c.248.196.531.176.977.146.578-.04 1.404.82.292.675-.164-.022-1.073-.16-1.477-.542-.197-.185-.137-.591-.066-.702l.03-.327z"/><path fill="#2E4247" d="M81.954 119.322c1.093-.891 5.356-6.227 5.356-6.227.814-1.01.869-1.825.37-2.226l-.167-.135c-.5-.4-1.996-.424-2-.42-2.916 3.58-4.198 6.3-4.865 7.643a.466.466 0 0 0 .023.456c.219.345.69.95 1.283.909"/><path fill="#0C232B" d="M92.65 102.314c-.408-1.593-.63-2.86-1.52-3.556l-4.93.756c-.475 2.034 1.444 3.664 2.816 7.293.236.624.871 3.203 1.223 4.629.344 1.392 1.568 1.798 2.15 1.574.965-.37 1.001-1.41 1.02-1.611.204-2.074-.404-7.696-.76-9.085"/><path fill="#0C232B" d="M92.435 120.218c.893-1.998 1.132-7.914.965-9.053 0 0-3.155-.21-3.155-.204-.006 1.955.292 7.068.614 8.755a.508.508 0 0 0 .365.396c.371.101.983.237 1.211.106"/><path fill="#2E4247" d="M89.201 99.77c-.317-1.62-5.895-3.261-4.99 3.63.209 1.582 1.018 7.543 1.703 8.61.27.422 1.538.906 1.651.74.102-.147.33-.425.524-.87.606-1.39.492-3.809.732-5.406.199-1.326.746-4.838.38-6.703"/><path fill="#CC7545" d="M92.938 80.179s.027-.196-.033-.247c-.06-.05-.304-.282-.304-.282l-.066-.114s-.238-.122-.28-.147c-.042-.025-.1-.072-.011-.115a.467.467 0 0 1 .352.018.36.36 0 0 0 .195.051s.046-.284.075-.356c0 0-.042-.445-.042-.63 0-.186 0-.286.051-.298.052-.01.11.09.14.287.023.146.055.362.073.461.003.013.022.013.025 0 .03-.138.112-.507.134-.596.026-.112.07-.287.14-.275.067.012.044.377.033.54a5.557 5.557 0 0 1-.03.307c-.001.01.013.013.017.004a7.75 7.75 0 0 1 .237-.515c.063-.106.112-.136.141-.121.03.014.034.155.004.279a12.61 12.61 0 0 1-.154.504c-.003.01.01.016.016.008.058-.074.178-.23.228-.3.067-.095.128-.153.174-.122.045.032-.068.274-.111.364-.044.09-.161.28-.161.28s-.014.419-.055.551c-.041.133-.063.238-.255.45-.001.082.023.271.023.271l-.58-.007.024-.25z"/><path fill="#C080B1" d="M89.039 88.975c-.306-.058-.597-.23-.862-.466l.019.274.604 1.163.527-.951a1.305 1.305 0 0 1-.288-.02"/><path fill="#2879FF" d="M90.821 90.947c-.606-2.099-2.731-2.532-3.004-2.533 0 0-1.168.06-1.425.157 0 0-.698.298-1.02.582-.937 1.169 0 3.17 0 4.605 0 1.435.101 2.145-.395 3.219-.362.784-.507 2.196-.496 2.203.82.5 3.4.443 4.089.334.9-.141 2.987-.476 2.968-1.078-.081-2.662-.289-6.009-.717-7.49"/><path fill="#2879FF" d="M93.817 80.524a.373.373 0 0 0-.317-.35l-.632-.099a.387.387 0 0 0-.445.33 18.986 18.986 0 0 1-.479 2.406c-.132.482-.41 1.488-.98 2.71-1.652 1.326-5.08 3.228-5.08 3.228-.889.601-1.258 1.565-.779 2.248l.16.229c.48.683 1.588.749 2.476.147l.767-.519.012-.01c1.467-.97 2.819-2.192 3.613-3.258.697-.777 1.296-2.236 1.44-3.51l.097-.849.002-.012c.126-1.05.17-2.107.145-2.69"/><g transform="translate(109.97 115.915)"><mask id="b" fill="#fff"><use xlink:href="#a"/></mask><path fill="#F57C02" d="M2.137.237C1.007.237.09 1.203.09 2.393v1.573c0 1.191.916 2.156 2.047 2.156h24.04v-.6h-.33c-.9 0-1.63-.768-1.63-1.716V2.554c0-.948.73-1.717 1.63-1.717h.33v-.6H2.136z" mask="url(#b)"/></g><path fill="#FDCA8D" d="M121.753 116.753h13.972c-.624.26-1.262.894-1.262 1.635v1.286c0 .974.584 1.763 1.262 1.763h-13.972c-.914 0-1.654-.768-1.654-1.716v-1.252c0-.948.74-1.716 1.654-1.716"/><path fill="#E5B37C" d="M134.463 119.003v.671c0 .974.584 1.763 1.262 1.763h-13.972c-.914 0-1.654-.768-1.654-1.716v-.718h14.364z"/><path fill="#CB6907" d="M121.56 116.153h14.585v.601h-14.392c-.914 0-1.654.768-1.654 1.716v1.252c0 .948.74 1.716 1.654 1.716h14.392v.6H121.56c-1.147 0-2.078-.966-2.078-2.156v-1.573c0-1.191.93-2.156 2.078-2.156"/><path fill="#2879FF" d="M126.716 121.082s-.493-.118-.493-.524v-1.555h1.382v1.504c0 .457.46.575.46.575s-.73.045-1.069-.36c0 0-.142.09-.28.36"/><g transform="translate(113.842 111.271)"><mask id="d" fill="#fff"><use xlink:href="#c"/></mask><path fill="#FFB839" d="M1.704.094C.774.094.02.837.02 1.753v1.21c0 .916.754 1.659 1.684 1.659H21.48V4.16h-.27a1.33 1.33 0 0 1-1.341-1.32v-.964c0-.729.6-1.32 1.34-1.32h.27V.094H1.705z" mask="url(#d)"/></g><path fill="#FDCA8D" d="M123.44 111.74h11.4c-.51.205-1.031.7-1.031 1.279v1.006c0 .76.477 1.378 1.03 1.378h-11.4c-.745 0-1.349-.6-1.349-1.342v-.979c0-.74.604-1.341 1.35-1.341"/><path fill="#E5B37C" d="M133.809 113.5v.525c0 .76.476 1.378 1.03 1.378h-11.4a1.346 1.346 0 0 1-1.349-1.342v-.562h11.719z"/><path fill="#DC9A23" d="M123.282 111.271h11.9v.47H123.44c-.746 0-1.35.601-1.35 1.342v.979c0 .741.604 1.342 1.35 1.342h11.742v.468h-11.9a1.69 1.69 0 0 1-1.696-1.686v-1.229a1.69 1.69 0 0 1 1.696-1.686"/><path fill="#F57C02" d="M61.47 120.512l.005-3.366a1.167 1.167 0 0 1 1.164-1.163l6.968.012c.64 0 1.161.526 1.16 1.167l-.006 3.365a1.167 1.167 0 0 1-1.164 1.164l-6.968-.012a1.167 1.167 0 0 1-1.16-1.167"/><path fill="#FFDD9F" d="M36.24 117.835l26.465.049.003-1.899-26.464-.048z"/><path fill="#FFCC72" d="M36.237 119.734l26.464.049.003-1.9-26.463-.048z"/><path fill="#FFB839" d="M36.234 121.633l26.464.048.003-1.898-26.464-.049z"/><path fill="#238B5E" d="M62.215 121.7l.01-5.718 1.145.002-.01 5.717z"/><path fill="#FDCA8D" d="M36.24 121.653l-5.092-2.856 5.101-2.84s1.477 2.305-.01 5.696"/><path fill="#023444" d="M32.597 117.99l-1.449.807 1.446.812z"/><path fill="#F6A9A9" d="M169.365 87.01s.17.016.18.138c.011.121 0 .432-.089.623-.09.19-.083.404-.42.424-.337.02-.944-.277-.945-.413-.002-.135.269-.469.269-.469l.166-.238s.438-.403.84-.064m1.182 18.28c-.059 1.165-.142 2.622 0 3.888a6.077 6.077 0 0 0-.036.743s.74 8.554 1.078 10.2c.356.262.834-.123.834-.123.293-1.634.899-5.837.844-8.717v-.022l-.018-1.335a6.161 6.161 0 0 0-.042-.645c.378-.7-2.62-4.752-2.66-3.989"/><path fill="#1E7750" d="M170.47 97.434c-.293.794-.281 1.776-.322 2.588-.063 1.239.093 7.023.244 8.37-.028.252.453 9.372.811 11.125.47.411 1.672-.03 1.672-.03.645-1.725.554-10.718.527-10.938.404-.745.637-6.14 1.056-7.724.035-.13.045-2.843.078-2.98-1.717-.374-2.385.096-4.066-.41"/><path fill="#23233B" d="M171.889 86.927c-.325.46-.725 1.083-.873 1.261-.148.178-.385.579-.237 1.039.148.46 1.125.875 1.746.682.622-.193 1.494-.623 1.554-1.661.059-1.039-.045-3.056-.045-3.056l-.695-.46s-1.124 1.735-1.45 2.195"/><path fill="#EDA82E" d="M168.471 87.831c-.032.047.605.35.593.369-.402.712-.626 2.783-.678 3.373-.005.058.04.106.095.091.672-.178 2.866-3.542 4.101-3.987.288-.103.504 1.918.468 1.975-.36.576-1.319 1.863-1.897 2.236-2.451 1.58-3.323 1.494-3.916 1.198-.664-.333-.357-1.51-.194-1.932.274-.712.97-2.685 1.428-3.323"/><path fill="#F6A9A9" d="M172.424 119.785l.053.93-1.75.707.876-1.558z"/><path fill="#23233B" d="M169.666 122.041l1.622-.045a.542.542 0 0 0 .376-.167l.643-.671.022.81.243-.008.197-.92a.774.774 0 0 0-.113-.59l-.128-.194a.096.096 0 0 0-.143-.02l-.914.778a1.23 1.23 0 0 1-.619.28l-.192.029c-.138.02-.273.056-.402.109l-.246.098a.877.877 0 0 0-.295.289l-.093.147a.049.049 0 0 0 .042.075"/><path fill="#F6A9A9" d="M177.845 108.936c.122.28.23.587.316.915l.358 1.345a.254.254 0 0 1 .005.022c.585 2.915 1.263 6.773 1.43 8.575 0 0-.59.3-1.004.124-.747-1.581-3.45-9.393-3.45-9.393a5.943 5.943 0 0 1-.211-1.588h2.556z"/><path fill="#F6A9A9" d="M179.818 119.23l.203 1.133-1.113 1.297-1.293.019.808-.654a.48.48 0 0 0 .171-.292l.217-1.273 1.007-.23z"/><path fill="#23233B" d="M179.297 121.984l.177-.076a.572.572 0 0 0 .303-.311l.368-.91.336.785.236-.102-.166-.978a.816.816 0 0 0-.34-.535l-.201-.139a.102.102 0 0 0-.148.037l-.199.679c-.114.215-.312.674-.523.796l-.45.19c-.208.053-.427-.127-.562-.112l-.474.262c-.262.175-.32.34-.33.471l1.973-.057z"/><path fill="#289163" d="M177.52 97.073c.06.138 1.244 2.539.502 5.48-.08 3.116.066 6.105.115 6.292 0 0 1.848 7.439 1.868 10.056 0 0-1.026.823-1.613.411-1.143-1.813-3.157-9.664-3.157-9.664-.16-.604-2.236-11.923-2.229-12.428l4.514-.147z"/><path fill="#FFB839" d="M178.017 98.082s-5.296 1.546-7.826.37c0 0 .677-4.414.571-5.087-.105-.674-.885-.784-.866-1.51.027-1.056 1.362-2.47 2.145-3.539.096-.127.667-.73.716-.772.425-.125.9-.103 1.31-.074 1.143.147 1.928.449 2.426 1.125.47 1.264-.338 3.891-.107 6.361.664.98 1.63 3.126 1.63 3.126"/><path fill="#EDA82E" d="M175.58 93.903c-.177-.716-.866-3.19-.524-4.534.347-.421 1.264.184 1.41.645.085.09.169 1.103.132 1.728-.168.808-.427 2.313.071 3.557.46.931 1.355 2.783 1.355 2.783s-1.764.471-2.068.5c.371-.881.708-1.645.312-2.768-.235-.668-.633-1.674-.689-1.911"/><path fill="#FFB839" d="M175.09 88.168s.448-.398 1.093.087 1.957 3.187 2.529 3.624c.52.397 3.096-1.578 3.563-1.943a.119.119 0 0 1 .146 0l.424.332a.103.103 0 0 1 .019.143c-.396.524-2.64 3.42-3.996 3.585-1.048.127-1.331-.538-2.033-1.353-.7-.815-1.957-2.897-2.151-3.464-.195-.568.407-1.01.407-1.01"/><path fill="#F6A9A9" d="M182.829 90.358l.236-.186c.132-.087.236-.104.29-.097.098.011.263.033.383.062.182.043.697-.112.76-.137.075-.03.375-.134.293-.23.107-.054.106-.139.068-.163.053-.031.108-.058.094-.135-.014-.078-.175-.053-.175-.053s.119-.121-.235-.126a8.008 8.008 0 0 0-.699.031l.1-.081c.076-.046.132-.165.067-.16l-.311.043a.542.542 0 0 0-.143.04l-.528.235-.048.03-.683.548s.059.245.53.379m-10.43-5.85s-.183.98-.317 1.188a1.515 1.515 0 0 0-.211.812c.003.273.051.447.45.45.444.004.353-.016.353-.016s.03.534-.044.772c-.074.237-.651 1.216-.651 1.216s.31.549.799.475c.488-.075 1.11-.549 1.11-.549l.103-3.694s-.858-.86-1.036-.801c-.177.06-.556.147-.556.147"/><path fill="#DB9195" d="M173.497 86.673s-.304.54-.832.856c0 0-.003-.25 0-.583 0 0 .3-.008.832-.273"/><path fill="#23233B" d="M173.22 86.868s-.236.91-.157 1.345c.079.435.079 1.029.67 1.384.592.357 1.697.515 2.328.04.631-.474.829-1.543.276-2.057-.552-.514-1.065-.475-1.104-1.108-.04-.632.355-1.028-.04-1.661-.394-.633-.71-.673-1.144-.712-.434-.04-.473-.005-.71-.213s-.695-.356-1.02-.238c-.326.12-.563.327-.563.386 0 .06-.074.43.592.653 0 0 .185.356.843.37a.544.544 0 0 1 .451.669c-.081.304-.362.927-.422 1.142"/><path fill="#C0272D" d="M169.956 86.327l.182.048a.117.117 0 0 0 .143-.082l.017-.065a.117.117 0 0 0-.083-.143l-.181-.048a.018.018 0 0 0-.023.012l-.068.256c-.002.01.003.02.013.022"/><path d="M165.582 85.266l-.024.088-.46 1.72s1.289-.48 1.914-.465c.598.016 1.406.15 1.406.15l.16-.598.024-.089.16-.598s-.768-.287-1.293-.571c-.55-.298-1.427-1.357-1.427-1.357l-.46 1.72z"/><path fill="#F57C02" d="M166.94 85.095l-.023.088-.865 1.585s1.693-.346 2.319-.33c.597.016 1.405.15 1.405.15l.16-.599.024-.088.16-.598s-.767-.287-1.293-.571c-.55-.298-1.727-1.595-1.727-1.595l.143.409-.303 1.549z"/><path fill="#00414F" d="M167.063 85.06c-.28 1.049-.792 1.823-1.14 1.73-.35-.093-.405-1.018-.124-2.067.28-1.048.792-1.823 1.141-1.73.35.093.404 1.018.123 2.067"/><path fill="#FFF" d="M166.916 85.02c-.258.964-.693 1.685-.97 1.611-.277-.074-.293-.914-.035-1.878.259-.963.693-1.684.97-1.61.278.074.293.914.035 1.878"/><path fill="#FBB549" d="M166.072 84.919l.062-.23a.595.595 0 0 1 .728-.42l.084.023a5.9 5.9 0 0 1-.37 1.375l-.083-.022a.593.593 0 0 1-.421-.726"/><path fill="#005679" d="M170.376 86.676s-.087.663-.294 1.094c-.206.43-.61.577-.61.577s-.184.046-.315-.042-.3-.263-.352-.395c-.053-.131-.032-.18.141-.187.174-.006.673-.387.629-1.316l.801.27z"/><path fill="#00B2CF" d="M169.852 86.51c.015.033 0 .093-.002.128-.012.214-.033.43-.11.632a1.894 1.894 0 0 1-.32.537.752.752 0 0 1-.451.279.082.082 0 0 1-.046-.003.086.086 0 0 1-.027-.023c-.052-.062-.125-.167-.117-.254.008-.078.107-.081.168-.083.173-.006.673-.387.628-1.316l.162.055c.028.009.08.016.103.034a.038.038 0 0 1 .012.014"/><path fill="#E2770C" d="M169.337 86.49l.969.257a.622.622 0 0 0 .76-.439l.092-.34a.62.62 0 0 0-.44-.759l-.969-.257a.096.096 0 0 0-.117.067l-.363 1.353a.096.096 0 0 0 .068.117"/><path fill="#F6A9A9" d="M169.964 87.039c.037.034.076.074.081.124.006.05-.045.107-.092.087.055.03.103.081.105.143.003.062-.06.124-.118.104.048.014.07.077.051.124-.02.047-.07.075-.12.08a.351.351 0 0 1-.149-.022c.022.062-.019.135-.078.164a.265.265 0 0 1-.195.004c-.063-.02-.122-.053-.184-.078-.061-.025-.128-.044-.175-.09-.047-.046-.063-.134-.01-.175.01-.008.023-.015.029-.027.007-.016-.003-.035-.01-.05a.185.185 0 0 1 .108-.237c-.054-.042-.053-.13-.01-.183.044-.053.118-.073.186-.067a.133.133 0 0 1-.046-.16c.108-.24.531.17.627.259"/><path fill="#DB9195" d="M170.084 87.176c-.014.003-.041.07-.049.082-.022.03-.038.048-.071.055-.057.012-.181.013-.232-.112a.517.517 0 0 1-.012-.364v-.003c.12.075.231.171.276.209.038.032.08.07.087.12v.013"/><path fill="#F6A9A9" d="M169.828 87.05a.235.235 0 0 0-.025.13c.006.045.034.089.077.104a.17.17 0 0 0 .071.005c.1-.01.197-.052.273-.118.013-.011-.145.08-.007.34.026.048.222.053.216-.132a1.788 1.788 0 0 1 .048-.24c.018-.044.003-.095-.025-.134a.421.421 0 0 0-.106-.094c-.203-.142-.414-.097-.522.138"/><path fill="#A1C3FB" d="M150.642 123.426H71.727a.695.695 0 0 1-.694-.692c0-.38.313-.691.694-.691h78.915c.382 0 .694.31.694.691 0 .38-.312.692-.694.692m-122.784 2.318H8.394a.429.429 0 0 1-.429-.427c0-.236.193-.427.429-.427h19.464c.235 0 .428.191.428.427a.429.429 0 0 1-.428.427"/><path fill="#56B89F" d="M186.14 122.815h-19.463a.429.429 0 0 1-.429-.426.43.43 0 0 1 .429-.428h19.463a.43.43 0 0 1 .429.428.429.429 0 0 1-.429.426"/><path fill="#F6A9A9" d="M10.697 103.368l.157-.703.006-.002-.126.62a.39.39 0 0 0-.004.125l.008.052a.06.06 0 0 0 .103.034.472.472 0 0 0 .117-.2l.186-.658s.1-.206.13-.51l.046.252c.011.05.055.159.134.16h.05c.006-.084-.015-.397-.016-.508-.001-.116-.293-.675-.293-.675l.152-.328-.511-.157-.096.318-.173.277-.258.657v.002l-.15.558a.65.65 0 0 0-.017.135l-.001.061c0 .058.04.105.068.08.044-.04.08-.1.102-.175l.076-.243-.085.554a.764.764 0 0 0-.006.153l.004.068c.003.065.048.116.076.086a.43.43 0 0 0 .093-.2l.094-.451-.08.5a.84.84 0 0 0-.008.182l.005.08c.006.078.064.136.1.1a.518.518 0 0 0 .117-.244"/><path fill="#2E4247" d="M17.34 88.887l-.232-.187c-.692-.557-1.806-.228-2.49.735l-.589.83-.009.014c-.962 1.328-1.817 3.132-2.36 4.49a6.1 6.1 0 0 0-.506 1.428c-.049.167-.08.3-.091.385a1.63 1.63 0 0 0-.01.096c-.147.742-.53 2.69-.673 3.72-.047.337.123.644.407.731l.505.154c.235.072.496-.06.62-.314.518-1.053 1.425-3.485 1.425-3.485a5.9 5.9 0 0 0 .557-1.846c.972-.885 2.078-2.029 2.862-3.157l.01-.014.59-.83c.683-.962.676-2.194-.016-2.75"/><path fill="#141313" d="M17.064 89.027l-.237-.18c-.007-.006-.014-.01-.022-.015-.299.487-.666.925-1.01 1.384-.42.56-.738 1.165-1.051 1.788-.355.705-.61 1.372-.873 2.04-.252.461-.673 1.338-.787 1.535a1.56 1.56 0 0 0-.155.361c-.35 1.239-.668 2.18-1.002 3.46-.159.607-.4 1.25-.559 1.898.213.026.433-.102.545-.329.517-1.053 1.424-3.485 1.424-3.485.217-.444.417-1.052.559-1.66.893-.866 1.884-1.972 2.66-3.157a.045.045 0 0 0 .01-.014l.574-.856c.665-.992.63-2.232-.076-2.77"/><path fill="#231F20" d="M11.122 120.816l-.89 1.847s.505.504 1.114.284l.696-1.666s-.941-.514-.92-.465"/><path fill="#231F20" d="M11.463 121.965s-.287.505-.04.751c.249.247.563.26 1.057.281.64.028 1.442 1.071.238.776-.179-.043-1.16-.307-1.558-.775-.193-.228-.077-.666.014-.778l.29-.255z"/><path fill="#F6A9A9" d="M26.022 80.205l-.099-.321c-.022-.064-.094-.197-.197-.187l-.065.007c.005.11.078.512.096.656.019.15.513.842.513.842l-.18.438.685.127.077-.426.184-.384.261-.899-.042-.104a.143.143 0 0 0-.054-.066l-.073-.047-.07-.181a.122.122 0 0 0-.085-.076l-.12-.024a.113.113 0 0 1-.066-.041l-.072-.091a.085.085 0 0 0-.043-.02c-.086-.008-.195.038-.195.038l.071-.823a.498.498 0 0 0-.014-.16l-.017-.068a.08.08 0 0 0-.139-.029.617.617 0 0 0-.121.277l-.144.88s-.1.283-.091.682m-6.425 5.11c.453.783.295 1.72-.352 2.092-.648.373-1.54.04-1.994-.742-.453-.783-.296-1.72.352-2.092.647-.373 1.54-.04 1.994.742"/><path fill="#F6A9A9" d="M17.457 88.931l2.024-.084c-.48-.853-.377-1.754-.377-1.754l-1.423-.254s-.471 1.43-.224 2.092m1.688-3.977s.433.215.615.215.25.216.057.5c-.194.284-.422.284-.422.284l-.25-1z"/><path fill="#23233B" d="M18.917 86.623c0 .746-.515 1.35-1.151 1.35-.635 0-1.15-.604-1.15-1.35 0-.746.515-1.351 1.15-1.351.636 0 1.15.605 1.15 1.35"/><path fill="#331B51" d="M16.526 84.426c-.049-.021-.064-.047-.058-.069.006-.022.024-.094.096-.089 1.504.114 2.525-1.621 3.019-.078.175.823-.915.748-1.45.707-.84-.064-1.104-.068-1.607-.471"/><path fill="#23233B" d="M18.299 86.047c-.677.564-1.494.699-1.827.303-.332-.396-.052-1.174.625-1.737.676-.564 1.494-.7 1.826-.303.332.397.053 1.174-.624 1.737"/><path fill="#F6A9A9" d="M18.493 86.702c.089.25.275.41.415.36.14-.049.18-.291.092-.54-.09-.249-.275-.41-.415-.36-.14.049-.181.291-.092.54"/><path fill="#231F20" d="M20.5 121.995l-.6 1.945s.462.49 1.095.355l.541-1.763s-1.049-.59-1.035-.537"/><path fill="#231F20" d="M21.218 122.895s-.454.364-.315.684c.138.32.359.74.853.766.603.033.837.135.875.345.051.288-.825.334-1.123.189-.15-.106-.76-.555-.955-1.136-.095-.283.175-.647.302-.718l.363-.13z"/><path fill="#2C3334" d="M19.652 102.084c.005-1.903-.538-3.472-2.292-3.678l-.498-.058c-2.55-.3-3.135 2.823-3.33 5.249a32.765 32.765 0 0 0 .017 5.497c.075.855.147 1.848.3 2.794l-.014.032-.553 1.265-.008.021c-1.21 2.723-2.153 6.187-2.501 7.879 0 0 .715.757 1.19.669 2.513-2.8 5.339-9.61 5.339-9.61.14-.321.24-.668.302-1.017.334-.931.614-1.884.86-2.709.449-1.51 1.182-4.143 1.188-6.334"/><path fill="#141313" d="M16.716 101.898c-.478 1.412-.608 2.896-.64 4.38-.03 1.498-.019 3.01.049 4.508.045.996.316 2.013.438 3.001.95-1.474 1.403-3.698 1.9-5.369.45-1.51 1.183-4.143 1.189-6.334 0-.383-.02-.753-.07-1.101-.958.295-1.914.599-2.866.915"/><path fill="#343A3B" d="M23.296 107.489c-.126-1.722-.283-3.85-.88-5.736-.517-1.637-1.51-2.833-3.376-2.515l-.53.09c-2.713.461-2.458 3.311-1.993 5.451a25.01 25.01 0 0 0 1.53 4.721c.51 1.165 1.115 2.65 1.964 3.657l-.009.132-.101 1.376-.001.022c-.237 2.968.023 6.549.255 8.26 0 0 .928.478 1.347.238.481-1.671 1.3-5.317 1.498-8.272l.003-.022.345-2.535a4.42 4.42 0 0 0-.016-.79c.181-1.346.051-2.878-.036-4.077"/><path fill="#2E4247" d="M17.189 88.055c.38-.013 1.855-.034 2.235-.016.364.017.124.198.458.35 0 0 1.762.625 2.353 5.3.003 1.633.13 3.828.612 6.176.02.1.035.197.043.291a.966.966 0 0 1 .104.526c-.1 1.116-2.193 2.113-4.826 2.206a10.423 10.423 0 0 1-1.723-.079c-.226-.03-.336-1.477-.412-1.779-.175.228-.489.84-.828 1.514-.881-.272-1.511-.686-1.74-1.181l-.005-.009a1.267 1.267 0 0 1-.027-.065c-.095-.238-.124-.534-.096-.846.179-1.954.515-3.756.876-5.272.37-3.607.588-5.18 2.66-6.772.093-.07.1-.337.316-.344"/><path fill="#141313" d="M19.82 88.355c-.148-.164-.031-.325-.345-.343-.396-.023-1.932.004-2.33.02-.186.007-.223.245-.285.376 1.515.226 2.99-.02 2.96-.053m.313 4.105c.675.341 1.2.812 1.994.9l.064.006c-.374-2.599-1.116-3.865-1.659-4.466a51.04 51.04 0 0 0-1.38 1.795.574.574 0 0 1 .088.16c.204.562.54 1.091.893 1.604"/><path fill="#2E4247" d="M27.013 81.775a.381.381 0 0 0-.288-.399l-.462-.109a.367.367 0 0 0-.4.188c-.574 1.028-1.786 3.935-1.786 3.935a4.51 4.51 0 0 0-.343 1.346c-1.134.458-2.464 1.113-3.462 1.88l-.012.008-.73.548c-.846.634-1.06 1.773-.478 2.544l.195.258c.581.77 1.739.882 2.585.247l.73-.548.012-.009c1.458-1.067 2.888-2.856 3.6-3.932a1.51 1.51 0 0 0 .227-.578 9.47 9.47 0 0 0 .088-.705l.01-.044s.449-3.368.514-4.63"/><path fill="#141313" d="M21.469 98.681l1.101-.45.019.21a.272.272 0 0 1-.068.21l-.298.312-.567.015c-.082.002-.153-.07-.168-.17l-.02-.127z"/><path fill="#59B4C9" d="M18.383 57.317l-.102-.159c-.007.005-.185.119-.463.342l.119.147c.27-.217.444-.33.446-.33"/><path fill="#2879FF" d="M14.666 63.464l-.188-.018a7.89 7.89 0 0 1 .195-1.15l.184.045a7.78 7.78 0 0 0-.191 1.123zm-.083 2.305a8.996 8.996 0 0 1-.132-1.157l.189-.01c.017.373.06.754.129 1.134l-.186.033zm.626-4.511l-.175-.07c.145-.356.318-.708.514-1.048l.164.094a8.323 8.323 0 0 0-.503 1.024zm.04 6.736a11.641 11.641 0 0 1-.393-1.094l.18-.054c.108.354.238.717.388 1.076l-.175.072zm1.097-8.71l-.15-.114c.233-.306.489-.603.76-.883l.136.13a9.64 9.64 0 0 0-.746.867zm-.028 10.77a15.93 15.93 0 0 1-.575-1.008l.167-.087c.172.329.363.664.569.997l-.161.099zm1.243 1.94c-.184-.33-.387-.658-.603-.974l.156-.106c.22.321.425.654.612.989l-.165.091zm.92 2.094c-.12-.362-.257-.721-.41-1.069l.173-.075c.155.353.295.717.417 1.084l-.18.06zm.516 2.228a12.98 12.98 0 0 0-.207-1.126l.184-.042c.086.372.156.757.21 1.142l-.187.026zm.123 2.286c.01-.385.005-.77-.015-1.146l.188-.01c.02.38.026.77.016 1.16l-.189-.004zm-.034 2.312l-.186-.03a17.758 17.758 0 0 0 .15-1.138l.187.018-.02.205c-.037.312-.079.63-.13.945z"/><path fill="#999" d="M18.739 57.005l12.891-6.04-10.345 3.653z"/><path fill="#FFF" d="M17.562 50.22s11.26.818 14.068.745c0 0-7.168 6.335-9.026 8.643l-1.32-4.99-.722-1.398-3-3z"/><g transform="translate(18.586 50.91)"><mask id="g" fill="#fff"><use xlink:href="#e"/></mask><path fill="url(#f)" d="M1.937 2.315L.123 6l2.533-2.324L12.947.12z" mask="url(#g)"/></g><path fill="#2E4247" d="M133.937 19.665c-.338-.104-1.877-.687-1.765-1.068.202-.689 2.384-3.363 2.384-3.363 1.374-3.322 3.206-3.282 3.206-3.282.587.462.498 1.876-.534 3.502l-3.291 4.21z"/><path fill="#23233B" d="M130.975 32.776l.045 1.52s-.418.296-.82.065l.068-1.369s.727-.249.707-.216"/><path fill="#23233B" d="M130.33 33.605s.065.413-.163.517c-.228.104-.442.033-.778-.077-.436-.142-1.236.359-.355.463.13.016.855.085 1.239-.13.187-.105.22-.43.187-.528l-.13-.245zm3.988-.648l-.04 1.52s-.434.272-.822.018l.145-1.362s.74-.208.717-.176"/><path fill="#23233B" d="M133.628 33.748s.042.416-.192.506c-.234.091-.443.009-.773-.12-.427-.167-1.254.288-.38.442.13.023.848.134 1.244-.06.193-.094.244-.416.216-.516l-.115-.252z"/><path fill="#FFF" d="M137.757 11.781c-1.782 1.355-1.986 5.777-2.493 8.976-.01.06-.023.506.008.614.143.502 1.325.97 3.322.941 1.781-.026 3.28-.469 3.647-1.055a.939.939 0 0 0 .123-.567c-.096-1.229-.09-2.405-.361-3.43-.89-4.716-1.675-5.3-1.744-5.286-.297-.163-.936-.454-1.463-.372-.602.1-.973.129-1.04.18"/><path fill="#2E4247" d="M137.87 11.754c-.071.062-.344.19-.543.499-.42.592-1.156 2.29-.761 4.892.43 2.836-.289 4.435-.198 5.973.018.298-.056 1.363-.764.993-.419-.219-.939-.506-1.014-.993.038-.23.75-2.453.48-4.238-.31-2.057.086-4.254.88-5.594.386-.652 1.18-1.205 1.38-1.34.243-.163.605-.311.605-.311s-.052.051-.066.12"/><g transform="translate(128.556 20.729)"><mask id="i" fill="#fff"><use xlink:href="#h"/></mask><path d="M1.14.44C.782.585.386 1.167.334 1.68.233 2.15.2 2.745.258 3.384L.372 4.63l.002.02c.231 2.682.653 5.935 1.042 7.45.19.138.747.04 1.127-.05.224-.052.39-.286.412-.582.11-1.499.295-4.166.033-8.084 1.86.146 4.458.157 5.318.199 1.679.08 3.78-1.084 3.854-1.926L12.137.76C11.894.243 9.204.045 6.53.045c-2.415 0-4.817.161-5.39.395" mask="url(#i)"/></g><path fill="#CC6904" d="M133.556 20.77c-.284.133-.687.526-.85 1.191-.156.5-.23 1.199-.183 1.964l.077 1.27.002.02c.153 2.726.477 6.036.813 7.583.18.145.72.06 1.09-.02.217-.048.384-.28.413-.58.147-1.534.407-4.185.245-8.238h6.33c1.509 0 1.886-1.1 1.867-1.967l-.02-.91c-.41-1-8.709-.814-9.784-.313z"/><path fill="#F57C02" d="M130.378 21.137c-.284.132-.687.525-.85 1.19-.156.5-.23 1.199-.183 1.964l.077 1.27.002.02c.153 2.726.477 6.036.813 7.583.18.145.72.06 1.09-.02.217-.048.384-.28.412-.58.148-1.534.408-4.185.246-8.238h9.427c1.51 0 1.887-1.099 1.867-1.967l-.02-.91c-.409-1-11.806-.814-12.881-.312z"/><path fill="#2E4247" d="M139.736 18.89c-.225.778-1.033 3.832.031 4.273 1.273.527 4.44-.05 3.938-1.432-.34-.934-.146-2.32-.146-2.32s.136-2.629-.192-4.736c-.262-1.686-1.802-3.25-3.782-3.695-.21.066-.088.187.034.27.092.061.14.155.164.257.183.77-.328 1.475-.092 2.424.476 1.918.403 3.092.045 4.96"/><path fill="#02131B" d="M143.58 19.078a.876.876 0 0 1-.337.66c-.163.13-.347.272-.456.344-.623.41-1.212.58-1.971.744-.472.1-.88.027-1.364.08.122-.595.25-1.364.315-1.797 1.024-.689 2.218-.716 2.297-.865.272-.512-.694-2.266-1.09-3.121-1.063-2.298.154-2.943.537-3.275.996.718 1.688 1.748 1.856 2.827.255 1.633.232 3.59.213 4.403"/><path fill="#941800" d="M137.26 9.328s-.134-.277-.24-.517c-.105-.24-.159-.405-.159-.405s-.008-.42.189-.692c.196-.273 1.04-.046 1.04-.046l-.83 1.66z"/><path fill="#CC7545" d="M139.61 9.062s-.094 1.816-.112 2.338c-.002.056 0 .294-.236.436-.141.085-.328.176-.744.186-.223.005-.492.017-.783-.2-.039-.029-.048-.083-.027-.127.408-.852.288-1.906.288-1.906l1.62-.698"/><path fill="#AE5E32" d="M137.713 11.685c.292-.826.295-1.521.295-1.521s1.426-.214 1.416-.18c-.034.645-.392 1.279-1.71 1.701"/><path fill="#CC7545" d="M137.206 8.297c-.245 2.042.303 2.788.777 2.836 1.291.13 1.825-.84 1.966-1.72.14-.881-.527-1.797-1.165-1.905-.638-.108-1.473-.097-1.578.789"/><path fill="#941800" d="M140.245 8.465c-.056-.567-.277-.826-.462-1.06-.301-.382-.628-.1-1.362-.322-1.882-.571-1.51 1.21-1.409 1.12a.362.362 0 0 1 .229-.079c.11-.37.515-.36.86-.328.435.042.783.102 1.053.435l.007.005s0 .002-.002.002c.021.026.043.051.063.079.065.09.068.207.033.312 0 .011.002.02 0 .032-.03.205.091.497.091.497s.312-.745.505-.125c.18.574-.174.75-.325.792.005.015-.184.384-.095.739.02.08.078.376.118.305.133-.239.098-.526.259-.751.142-.2.525-.782.437-1.653"/><path fill="#CC7545" d="M137.769 19.812s-.807-.061-1.004-.061c-.197 0-.522-.03-.63.01-.108.04-.6.314-.709.436-.108.122-.138.169-.105.22 0 0-.033.043-.016.087.016.044.075.058.108.044 0 0-.009.052.076.052.022 0 .072.015.165-.053 0 0-.012.02.022.048.05.04.227 0 .323-.03.095-.031.326-.037.375-.047.05-.01.17.064.341.074.17.01.549-.037.811-.152.263-.115.834-.118.834-.118s.036-.443-.017-.507c-.052-.064-.275-.02-.574-.003"/><path fill="#2E4247" d="M141.818 11.788c-.306-.153-.674-.33-1.049-.266-1.063.182-.986 1.312-.379 2.254 1.635 2.539 2.241 4.59 2.168 4.909-.09.394.908.562 1.106.492.196-.07.974-.283.975-.712.004-.839-.248-2.236-.434-2.947a7.086 7.086 0 0 0-1.386-2.751c-.272-.332-.583-.771-1-.979"/><path fill="#2E4247" d="M137.72 20.686c-.15-.044-.256-.154-.248-.288.015-.28.228-.886.418-.922.663-.128 3.486-.878 5.32-.873.019.172 1.407-.352 1.407-.352.315 2.27-.762 2.318-2.288 2.59 0 0-3.064.3-4.609-.155"/><path fill="#18744C" d="M136.905 21.028h-7.135a.078.078 0 0 1-.074-.055l-1.76-5.57a.08.08 0 0 1 .073-.105h7.012c.107 0 .2.071.234.175l1.723 5.45a.079.079 0 0 1-.073.105"/><path fill="#18744C" d="M141.46 20.902h-6.785a.094.094 0 0 1-.092-.096v-.073c0-.052.041-.095.092-.095h6.785c.05 0 .092.043.092.095v.073a.094.094 0 0 1-.092.096"/><path fill="#289163" d="M136.864 21.028h-7.044a.351.351 0 0 1-.333-.249l-1.658-5.248a.177.177 0 0 1 .164-.233h6.815c.146 0 .275.097.32.24l1.736 5.49z"/><path fill="#00B5A3" d="M141.44 21.028h-6.857v-.263h6.97v.148c0 .063-.05.115-.113.115"/><path fill="#E4E4E1" d="M133.066 18.157c0 .268-.309.486-.69.486-.38 0-.689-.218-.689-.486 0-.27.309-.487.69-.487.38 0 .689.218.689.487"/></g></svg>