<?xml version="1.0" encoding="UTF-8"?>
<svg width="38px" height="36px" viewBox="0 0 38 36" version="1.1" xmlns="http://www.w3.org/2000/svg" xmlns:xlink="http://www.w3.org/1999/xlink">
    <!-- Generator: Sketch 51.3 (57544) - http://www.bohemiancoding.com/sketch -->
    <title>best</title>
    <desc>Created with Sketch.</desc>
    <defs></defs>
    <g id="FAG_HOME" stroke="none" stroke-width="1" fill="none" fill-rule="evenodd">
        <g id="1280_home" transform="translate(-267.000000, -699.000000)">
            <g id="Group-6" transform="translate(64.000000, 682.000000)">
                <g id="best" transform="translate(202.000000, 18.000000)">
                    <path d="M5.14645991,4.18129584 L13.9944724,-0.999116062 C15.7242386,-2.01187473 17.9070585,-1.80969135 19.4213792,-0.496449594 L35.5547421,13.4946459 C37.5060396,15.1868405 37.716084,18.1404744 36.0238894,20.091772 C35.8763408,20.2619127 35.716695,20.4211733 35.5461983,20.5683105 L19.2567457,34.6259701 C17.8232718,35.8630458 15.7853113,36.1136866 14.0948032,35.2608172 L5.40288049,30.8757003 C3.82677452,30.0805472 2.83272405,28.4656519 2.83272405,26.7003252 L2.83272405,8.217099 C2.83272405,6.55645003 3.71337263,5.02035234 5.14645991,4.18129584 Z" id="Rectangle-13" fill="#FFFFFF" transform="translate(20.009485, 17.061982) rotate(-270.000000) translate(-20.009485, -17.061982) "></path>
                    <path d="M26.5719932,11.827792 L28.6269321,7.56334186 L30.681871,11.827792 L26.5719932,11.827792 Z M21.4930216,23.9647059 L25.7461067,13.6180733 L30.1815081,13.6180733 L21.4930216,23.9647059 Z M19.9999845,23.0331628 L16.1299358,13.6180733 L23.8700332,13.6180733 L19.9999845,23.0331628 Z M9.81846093,13.6180733 L14.2538623,13.6180733 L18.5069474,23.9647059 L9.81846093,13.6180733 Z M11.3730369,7.56334186 L13.4279758,11.827792 L9.31809797,11.827792 L11.3730369,7.56334186 Z M18.274595,6.456948 L14.9710492,11.0269395 L12.768877,6.456948 L18.274595,6.456948 Z M23.4507635,11.827792 L16.5492055,11.827792 L19.9999845,7.05370844 L23.4507635,11.827792 Z M27.231092,6.456948 L25.0289198,11.0269395 L21.725374,6.456948 L27.231092,6.456948 Z M32.8495354,12.3225064 L29.3987564,5.16138107 C29.2316811,4.8571526 28.9971432,4.66666667 28.6269321,4.66666667 L11.3730369,4.66666667 C11.0123155,4.66666667 10.771106,4.85237852 10.6012126,5.16138107 L7.1504336,12.3225064 C6.99066253,12.6745951 7.04535738,13.0284143 7.271786,13.3107417 L19.3495127,27.6926684 C19.5134247,27.887809 19.7503782,28 19.9999845,28 C20.2495909,28 20.4865443,27.887809 20.6504564,27.6926684 L32.728183,13.3107417 C32.9531738,13.0298465 33.0102842,12.676445 32.8495354,12.3225064 Z" id="ic_quality_b" fill="#FFB839"></path>
                </g>
            </g>
        </g>
    </g>
</svg>