<?xml version="1.0" encoding="UTF-8"?>
<svg width="20px" height="20px" viewBox="0 0 20 20" version="1.1" xmlns="http://www.w3.org/2000/svg" xmlns:xlink="http://www.w3.org/1999/xlink">
    <!-- Generator: Sketch 51.2 (57519) - http://www.bohemiancoding.com/sketch -->
    <title>ic_info_normal</title>
    <desc>Created with Sketch.</desc>
    <defs></defs>
    <g id="Symbols" stroke="none" stroke-width="1" fill="none" fill-rule="evenodd">
        <g id="ic_info_normal" transform="translate(-2.000000, -2.000000)" fill="#393636" fill-rule="nonzero">
            <g transform="translate(2.000000, 2.000000)" id="Combined-Shape">
                <path d="M10,18.6666667 C14.7864678,18.6666667 18.6666667,14.7864678 18.6666667,10 C18.6666667,5.21353217 14.7864678,1.33333333 10,1.33333333 C5.21353217,1.33333333 1.33333333,5.21353217 1.33333333,10 C1.33333333,14.7864678 5.21353217,18.6666667 10,18.6666667 Z M10,20 C4.4771525,20 0,15.5228475 0,10 C0,4.4771525 4.4771525,0 10,0 C15.5228475,0 20,4.4771525 20,10 C20,15.5228475 15.5228475,20 10,20 Z M10,8 C10.3681898,8 10.6666667,8.29847683 10.6666667,8.66666667 L10.6666667,15.3333333 C10.6666667,15.7015232 10.3681898,16 10,16 C9.63181017,16 9.33333333,15.7015232 9.33333333,15.3333333 L9.33333333,8.66666667 C9.33333333,8.29847683 9.63181017,8 10,8 Z M10,5.33333333 C10.3681898,5.33333333 10.6666667,5.63181017 10.6666667,6 C10.6666667,6.36818983 10.3681898,6.66666667 10,6.66666667 C9.63181017,6.66666667 9.33333333,6.36818983 9.33333333,6 C9.33333333,5.63181017 9.63181017,5.33333333 10,5.33333333 Z"></path>
            </g>
        </g>
    </g>
</svg>