<?xml version="1.0" encoding="UTF-8"?>
<svg width="24px" height="6px" viewBox="0 0 24 6" version="1.1" xmlns="http://www.w3.org/2000/svg" xmlns:xlink="http://www.w3.org/1999/xlink">
    <!-- Generator: Sketch 51.2 (57519) - http://www.bohemiancoding.com/sketch -->
    <title>ic_more_pressed</title>
    <desc>Created with Sketch.</desc>
    <defs>
        <path d="M3,6 C1.34314575,6 0,4.65685425 0,3 C0,1.34314575 1.34314575,0 3,0 C4.65685425,0 6,1.34314575 6,3 C6,4.65685425 4.65685425,6 3,6 Z M21,6 C19.3431458,6 18,4.65685425 18,3 C18,1.34314575 19.3431458,0 21,0 C22.6568542,0 24,1.34314575 24,3 C24,4.65685425 22.6568542,6 21,6 Z M12,6 C10.3431458,6 9,4.65685425 9,3 C9,1.34314575 10.3431458,0 12,0 C13.6568542,0 15,1.34314575 15,3 C15,4.65685425 13.6568542,6 12,6 Z M12,4.5 C12.8284271,4.5 13.5,3.82842712 13.5,3 C13.5,2.17157288 12.8284271,1.5 12,1.5 C11.1715729,1.5 10.5,2.17157288 10.5,3 C10.5,3.82842712 11.1715729,4.5 12,4.5 Z M3,4.5 C3.82842712,4.5 4.5,3.82842712 4.5,3 C4.5,2.17157288 3.82842712,1.5 3,1.5 C2.17157288,1.5 1.5,2.17157288 1.5,3 C1.5,3.82842712 2.17157288,4.5 3,4.5 Z M21,4.5 C21.8284271,4.5 22.5,3.82842712 22.5,3 C22.5,2.17157288 21.8284271,1.5 21,1.5 C20.1715729,1.5 19.5,2.17157288 19.5,3 C19.5,3.82842712 20.1715729,4.5 21,4.5 Z" id="path-1"></path>
    </defs>
    <g id="post_text" stroke="none" stroke-width="1" fill="none" fill-rule="evenodd">
        <g id="1280_post_text" transform="translate(-633.000000, -1292.000000)">
            <g id="ic_more" transform="translate(633.000000, 1292.000000)">
                <g id="ic_more_pressed">
                    <mask id="mask-2" fill="white">
                        <use xlink:href="#path-1"></use>
                    </mask>
                    <use id="Combined-Shape" fill="#2879FF" fill-rule="nonzero" xlink:href="#path-1"></use>
                </g>
            </g>
        </g>
    </g>
</svg>