<svg width="18" height="9" xmlns="http://www.w3.org/2000/svg"><path d="M6.173 7.19v1.742l1.949-1.094a8.877 8.877 0 0 0 1.99.243 10.3 10.3 0 0 0 3.715-.709c1.232-.472 2.166-.952 2.803-1.438.636-.486.954-.823.954-1.012 0-.136-.244-.399-.731-.79-.488-.392-1.212-.817-2.173-1.276a10.784 10.784 0 0 0-2.985-.932L7.92.02v2.066a13.763 13.763 0 0 0-4.467 2.187L.365 2.086c-.108-.081-.196-.101-.263-.06-.068.04-.102.114-.102.222.081.135.176.304.284.506.109.203.244.547.406 1.033.163.486.244.885.244 1.195 0 .31-.074.689-.223 1.134A5.512 5.512 0 0 1 .244 7.19L0 7.635c0 .109.04.183.122.223.081.04.162.02.243-.06L3.452 5.61c.108.081 1.015.608 2.72 1.58zm7.451-3.22a.861.861 0 0 1 .63-.264.86.86 0 0 1 .63.264.856.856 0 0 1 .263.627.856.856 0 0 1-.264.628.86.86 0 0 1-.63.264.861.861 0 0 1-.629-.264.857.857 0 0 1-.264-.628c0-.242.088-.452.264-.627z" fill="currentColor" fill-rule="evenodd"/></svg>