<svg viewBox="0 0 18 18" xmlns="http://www.w3.org/2000/svg"><g fill="currentColor" fill-rule="evenodd"><path d="M9 1.406A7.59 7.59 0 0 0 1.406 9 7.59 7.59 0 0 0 9 16.594 7.59 7.59 0 0 0 16.594 9 7.59 7.59 0 0 0 9 1.406zM9 18c-4.974 0-9-4.025-9-9 0-4.974 4.025-9 9-9 4.974 0 9 4.025 9 9 0 4.974-4.025 9-9 9z"/><path d="M8.648 10.465a.703.703 0 0 1-.703-.703V8.75c0-.389.315-.704.703-.704h.704a1.056 1.056 0 0 0 0-2.109H6.89a.703.703 0 1 1 0-1.406h2.46a2.464 2.464 0 0 1 2.461 2.46 2.464 2.464 0 0 1-2.46 2.462v.309a.703.703 0 0 1-.704.703m.001.861a.95.95 0 1 1 0 1.898.95.95 0 0 1 0-1.898"/></g></svg>