<svg xmlns="http://www.w3.org/2000/svg" viewBox="0 0 20 20"><g fill="none" fill-rule="evenodd"><path fill="#fefefe" d="M10 20c5.523 0 10-4.477 10-10S15.523 0 10 0 0 4.477 0 10s4.477 10 10 10z"/><path fill="#2879FF" fill-rule="nonzero" d="M9.48 4.899c0-.346.203-.665.524-.813a.932.932 0 0 1 .977.121L16.67 8.84a.901.901 0 0 1 .331.694c0 .266-.12.518-.33.691l-5.691 4.653a.937.937 0 0 1-.97.12.896.896 0 0 1-.531-.816v-1.877c-1.363.04-2.06.23-2.82.807-.643.489-1.273 1.265-1.94 2.428a.916.916 0 0 1-.8.46.905.905 0 0 1-.917-.9v-.278c-.015-2.211.15-3.506.9-4.876C4.923 8.08 6.82 7.034 9.481 6.824V4.899zm1.122.426v2.543l-.54.02c-2.576.092-4.288.96-5.172 2.574-.584 1.07-.756 2.142-.768 3.908.605-.947 1.208-1.636 1.848-2.123 1.104-.838 2.093-1.04 4.067-1.046l.563-.002v2.56l5.169-4.226-5.167-4.208z"/></g></svg>
