<?xml version="1.0" encoding="UTF-8"?>
<svg width="18px" height="18px" viewBox="0 0 18 18" version="1.1" xmlns="http://www.w3.org/2000/svg" xmlns:xlink="http://www.w3.org/1999/xlink">
    <!-- Generator: Sketch 51.2 (57519) - http://www.bohemiancoding.com/sketch -->
    <title>ic_sharing_normal</title>
    <desc>Created with Sketch.</desc>
    <defs>
        <path d="M14.4715909,5.47256917 C15.553353,5.47256917 16.4290909,4.59848672 16.4290909,3.52173913 C16.4290909,2.44499154 15.553353,1.57090909 14.4715909,1.57090909 C13.3898288,1.57090909 12.5140909,2.44499154 12.5140909,3.52173913 C12.5140909,4.59848672 13.3898288,5.47256917 14.4715909,5.47256917 Z M14.4715909,7.04347826 C12.5229044,7.04347826 10.9431818,5.46674194 10.9431818,3.52173913 C10.9431818,1.57673632 12.5229044,0 14.4715909,0 C16.4202774,0 18,1.57673632 18,3.52173913 C18,5.46674194 16.4202774,7.04347826 14.4715909,7.04347826 Z M14.4715909,16.4290909 C15.553353,16.4290909 16.4290909,15.5550085 16.4290909,14.4782609 C16.4290909,13.4015133 15.553353,12.5274308 14.4715909,12.5274308 C13.3898288,12.5274308 12.5140909,13.4015133 12.5140909,14.4782609 C12.5140909,15.5550085 13.3898288,16.4290909 14.4715909,16.4290909 Z M14.4715909,18 C12.5229044,18 10.9431818,16.4232637 10.9431818,14.4782609 C10.9431818,12.5332581 12.5229044,10.9565217 14.4715909,10.9565217 C16.4202774,10.9565217 18,12.5332581 18,14.4782609 C18,16.4232637 16.4202774,18 14.4715909,18 Z M3.52840909,10.95083 C4.61017118,10.95083 5.48590909,10.0767476 5.48590909,9 C5.48590909,7.92325241 4.61017118,7.04916996 3.52840909,7.04916996 C2.446647,7.04916996 1.57090909,7.92325241 1.57090909,9 C1.57090909,10.0767476 2.446647,10.95083 3.52840909,10.95083 Z M6.2431995,11.2496756 C5.59598159,12.0268941 4.62009342,12.5217391 3.52840909,12.5217391 C1.57972256,12.5217391 0,10.9450028 0,9 C0,7.05499719 1.57972256,5.47826087 3.52840909,5.47826087 C4.62009342,5.47826087 5.59598159,5.97310595 6.2431995,6.75032441 L11.6872902,4.03342468 L12.3887591,5.4390195 L6.9537094,8.15140726 C7.021075,8.42319705 7.05681818,8.70743228 7.05681818,9 C7.05681818,9.29256772 7.021075,9.57680295 6.9537094,9.84859274 L12.3887591,12.5609805 L11.6872902,13.9665753 L6.2431995,11.2496756 Z" id="path-1"></path>
    </defs>
    <g id="Symbols" stroke="none" stroke-width="1" fill="none" fill-rule="evenodd">
        <g id="Group-8" transform="translate(-365.000000, -7.000000)">
            <g id="Group-15" transform="translate(254.000000, 4.000000)">
                <g id="ic_sharing_normal" transform="translate(111.000000, 3.000000)">
                    <mask id="mask-2" fill="white">
                        <use xlink:href="#path-1"></use>
                    </mask>
                    <use id="Combined-Shape" fill="#333333" fill-rule="nonzero" xlink:href="#path-1"></use>
                </g>
            </g>
        </g>
    </g>
</svg>