<svg xmlns="http://www.w3.org/2000/svg" xmlns:xlink="http://www.w3.org/1999/xlink" width="16" height="15"><defs><path id="a" d="M.002 0H16v16H.002z"/></defs><g fill="currentColor" fill-rule="evenodd" transform="translate(0 -1)"><mask id="b" fill="currentColor"><use xlink:href="#a"/></mask><path fill="currentColor" d="M9.074 13.424a4.14 4.14 0 0 0 .286-1.18 3.271 3.271 0 0 0 2.677-1.455c.85-1.275 2.06-1.36 2.99-1.356-.16 1.466-.937 2.782-2.143 3.682a5.303 5.303 0 0 1-4.166.967c.136-.209.258-.427.356-.658zM10.813 8.5a.469.469 0 1 1 0 .937.469.469 0 0 1 0-.937zM0 2.406v.938C0 4.476.807 5.422 1.875 5.64v.66c0 2.54 1.015 4.939 2.73 6.581.217.209.442.399.67.58-.08.14-.161.28-.224.429a4.189 4.189 0 0 0-.332 1.642c0 .26.21.469.468.469.57 0 1.123-.112 1.643-.332.448-.19.848-.463 1.207-.793 2.008.537 3.908.111 5.408-1.009a6.292 6.292 0 0 0 2.554-5.127c-.017-1.166-1.04-2.114-2.24-2.114H6.093a1.404 1.404 0 0 1-1.34-1.006 2.344 2.344 0 0 0 1.81-2.276v-.938a.47.47 0 0 0-.47-.469c-1.199 0-2.24.655-2.812 1.619A3.271 3.271 0 0 0 .47 1.937c-.26 0-.469.21-.469.47z" mask="url(#b)"/></g></svg>